<svg width="176" height="163" viewBox="0 0 176 163" fill="none" xmlns="http://www.w3.org/2000/svg">
<circle cx="173.25" cy="2.25" r="2.25" transform="rotate(90 173.25 2.25)" fill="white" fill-opacity="0.5"/>
<circle cx="173.25" cy="41.75" r="2.25" transform="rotate(90 173.25 41.75)" fill="white" fill-opacity="0.5"/>
<circle cx="173.25" cy="81.25" r="2.25" transform="rotate(90 173.25 81.25)" fill="white" fill-opacity="0.5"/>
<circle cx="173.25" cy="120.75" r="2.25" transform="rotate(90 173.25 120.75)" fill="white" fill-opacity="0.5"/>
<circle cx="173.25" cy="160.25" r="2.25" transform="rotate(90 173.25 160.25)" fill="white" fill-opacity="0.5"/>
<circle cx="144.75" cy="2.25" r="2.25" transform="rotate(90 144.75 2.25)" fill="white" fill-opacity="0.5"/>
<circle cx="144.75" cy="41.75" r="2.25" transform="rotate(90 144.75 41.75)" fill="white" fill-opacity="0.5"/>
<circle cx="144.75" cy="81.25" r="2.25" transform="rotate(90 144.75 81.25)" fill="white" fill-opacity="0.5"/>
<circle cx="144.75" cy="120.75" r="2.25" transform="rotate(90 144.75 120.75)" fill="white" fill-opacity="0.5"/>
<circle cx="144.75" cy="160.25" r="2.25" transform="rotate(90 144.75 160.25)" fill="white" fill-opacity="0.5"/>
<circle cx="116.25" cy="2.25" r="2.25" transform="rotate(90 116.25 2.25)" fill="white" fill-opacity="0.5"/>
<circle cx="116.25" cy="41.75" r="2.25" transform="rotate(90 116.25 41.75)" fill="white" fill-opacity="0.5"/>
<circle cx="116.25" cy="81.25" r="2.25" transform="rotate(90 116.25 81.25)" fill="white" fill-opacity="0.5"/>
<circle cx="116.25" cy="120.75" r="2.25" transform="rotate(90 116.25 120.75)" fill="white" fill-opacity="0.5"/>
<circle cx="116.25" cy="160.25" r="2.25" transform="rotate(90 116.25 160.25)" fill="white" fill-opacity="0.5"/>
<circle cx="87.75" cy="2.25" r="2.25" transform="rotate(90 87.75 2.25)" fill="white" fill-opacity="0.5"/>
<circle cx="87.75" cy="41.75" r="2.25" transform="rotate(90 87.75 41.75)" fill="white" fill-opacity="0.5"/>
<circle cx="87.75" cy="81.25" r="2.25" transform="rotate(90 87.75 81.25)" fill="white" fill-opacity="0.5"/>
<circle cx="87.75" cy="120.75" r="2.25" transform="rotate(90 87.75 120.75)" fill="white" fill-opacity="0.5"/>
<circle cx="87.75" cy="160.25" r="2.25" transform="rotate(90 87.75 160.25)" fill="white" fill-opacity="0.5"/>
<circle cx="59.25" cy="2.25" r="2.25" transform="rotate(90 59.25 2.25)" fill="white" fill-opacity="0.5"/>
<circle cx="59.25" cy="41.75" r="2.25" transform="rotate(90 59.25 41.75)" fill="white" fill-opacity="0.5"/>
<circle cx="59.25" cy="81.25" r="2.25" transform="rotate(90 59.25 81.25)" fill="white" fill-opacity="0.5"/>
<circle cx="59.25" cy="120.75" r="2.25" transform="rotate(90 59.25 120.75)" fill="white" fill-opacity="0.5"/>
<circle cx="59.25" cy="160.25" r="2.25" transform="rotate(90 59.25 160.25)" fill="white" fill-opacity="0.5"/>
<circle cx="30.75" cy="2.25" r="2.25" transform="rotate(90 30.75 2.25)" fill="white" fill-opacity="0.5"/>
<circle cx="30.75" cy="41.75" r="2.25" transform="rotate(90 30.75 41.75)" fill="white" fill-opacity="0.5"/>
<circle cx="30.75" cy="81.25" r="2.25" transform="rotate(90 30.75 81.25)" fill="white" fill-opacity="0.5"/>
<circle cx="30.75" cy="120.75" r="2.25" transform="rotate(90 30.75 120.75)" fill="white" fill-opacity="0.5"/>
<circle cx="30.75" cy="160.25" r="2.25" transform="rotate(90 30.75 160.25)" fill="white" fill-opacity="0.5"/>
<circle cx="2.25" cy="2.25" r="2.25" transform="rotate(90 2.25 2.25)" fill="white" fill-opacity="0.5"/>
<circle cx="2.25" cy="41.75" r="2.25" transform="rotate(90 2.25 41.75)" fill="white" fill-opacity="0.5"/>
<circle cx="2.25" cy="81.25" r="2.25" transform="rotate(90 2.25 81.25)" fill="white" fill-opacity="0.5"/>
<circle cx="2.25" cy="120.75" r="2.25" transform="rotate(90 2.25 120.75)" fill="white" fill-opacity="0.5"/>
<circle cx="2.25" cy="160.25" r="2.25" transform="rotate(90 2.25 160.25)" fill="white" fill-opacity="0.5"/>
</svg>
