<svg width="32" height="33" viewBox="0 0 32 33" fill="none" xmlns="http://www.w3.org/2000/svg">
<path d="M16.0002 10.2648C12.4533 10.2648 9.59078 13.1273 9.59078 16.6742C9.59078 20.221 12.4533 23.0835 16.0002 23.0835C19.547 23.0835 22.4095 20.221 22.4095 16.6742C22.4095 13.1273 19.547 10.2648 16.0002 10.2648ZM16.0002 20.8398C13.7064 20.8398 11.8345 18.9679 11.8345 16.6742C11.8345 14.3804 13.7064 12.5085 16.0002 12.5085C18.2939 12.5085 20.1658 14.3804 20.1658 16.6742C20.1658 18.9679 18.2939 20.8398 16.0002 20.8398ZM22.672 8.50854C21.8439 8.50854 21.1752 9.17729 21.1752 10.0054C21.1752 10.8335 21.8439 11.5023 22.672 11.5023C23.5002 11.5023 24.1689 10.8367 24.1689 10.0054C24.1692 9.80878 24.1306 9.61402 24.0555 9.4323C23.9803 9.25058 23.8701 9.08546 23.731 8.94642C23.592 8.80737 23.4269 8.69712 23.2452 8.62198C23.0634 8.54685 22.8687 8.5083 22.672 8.50854ZM28.4939 16.6742C28.4939 14.9492 28.5095 13.2398 28.4127 11.5179C28.3158 9.51792 27.8595 7.74292 26.397 6.28042C24.9314 4.8148 23.1595 4.36167 21.1595 4.2648C19.4345 4.16792 17.7252 4.18355 16.0033 4.18355C14.2783 4.18355 12.5689 4.16792 10.847 4.2648C8.84703 4.36167 7.07203 4.81792 5.60952 6.28042C4.1439 7.74604 3.69077 9.51792 3.5939 11.5179C3.49702 13.2429 3.51265 14.9523 3.51265 16.6742C3.51265 18.396 3.49702 20.1085 3.5939 21.8304C3.69077 23.8304 4.14702 25.6054 5.60952 27.0679C7.07515 28.5335 8.84703 28.9867 10.847 29.0835C12.572 29.1804 14.2814 29.1648 16.0033 29.1648C17.7283 29.1648 19.4377 29.1804 21.1595 29.0835C23.1595 28.9867 24.9345 28.5304 26.397 27.0679C27.8627 25.6023 28.3158 23.8304 28.4127 21.8304C28.5127 20.1085 28.4939 18.3992 28.4939 16.6742ZM25.7439 24.0429C25.5158 24.6117 25.2408 25.0367 24.8002 25.4742C24.3595 25.9148 23.9377 26.1898 23.3689 26.4179C21.7252 27.071 17.822 26.9242 16.0002 26.9242C14.1783 26.9242 10.272 27.071 8.62828 26.421C8.05953 26.1929 7.63453 25.9179 7.19703 25.4773C6.7564 25.0367 6.4814 24.6148 6.25328 24.046C5.60328 22.3992 5.75015 18.496 5.75015 16.6742C5.75015 14.8523 5.60328 10.946 6.25328 9.30229C6.4814 8.73354 6.7564 8.30854 7.19703 7.87105C7.63765 7.43355 8.05953 7.15542 8.62828 6.9273C10.272 6.2773 14.1783 6.42417 16.0002 6.42417C17.822 6.42417 21.7283 6.2773 23.372 6.9273C23.9408 7.15542 24.3658 7.43042 24.8033 7.87105C25.2439 8.31167 25.5189 8.73354 25.747 9.30229C26.397 10.946 26.2502 14.8523 26.2502 16.6742C26.2502 18.496 26.397 22.3992 25.7439 24.0429Z" fill="white"/>
</svg>
