<svg width="32" height="33" viewBox="0 0 32 33" fill="none" xmlns="http://www.w3.org/2000/svg">
<path fill-rule="evenodd" clip-rule="evenodd" d="M12.5718 12.6328H17.5238V15.0995C18.2372 13.6808 20.0665 12.4062 22.8145 12.4062C28.0825 12.4062 29.3332 15.2302 29.3332 20.4115V30.0075H23.9998V21.5915C23.9998 18.6408 23.2865 16.9768 21.4705 16.9768C18.9518 16.9768 17.9052 18.7702 17.9052 21.5902V30.0075H12.5718V12.6328ZM3.4265 29.7808H8.75984V12.4062H3.4265V29.7808ZM9.52384 6.74082C9.52404 7.18785 9.43538 7.63047 9.26302 8.04294C9.09066 8.45541 8.83804 8.8295 8.51984 9.14349C7.87504 9.78432 7.00225 10.143 6.09317 10.1408C5.18569 10.1402 4.31492 9.78242 3.66917 9.14482C3.35212 8.82977 3.10035 8.45525 2.9283 8.04273C2.75624 7.63021 2.66728 7.18779 2.6665 6.74082C2.6665 5.83815 3.0265 4.97415 3.6705 4.33682C4.31568 3.69836 5.18682 3.34042 6.0945 3.34082C7.00384 3.34082 7.87584 3.69949 8.51984 4.33682C9.1625 4.97415 9.52384 5.83815 9.52384 6.74082Z" fill="white"/>
</svg>
