<svg width="222" height="65" viewBox="0 0 222 65" fill="none" xmlns="http://www.w3.org/2000/svg">
<path d="M204.505 38.4303C204.508 34.7231 203.632 31.0676 201.948 27.7628C200.264 24.4581 197.82 21.5978 194.815 19.4158L191.743 20.8256L191.234 22.9582L187.875 24.8877L187.331 31.1348L188.654 33.503L184.481 37.5245L186.246 33.2593L184.481 31.5654L185.193 27.1662L177.831 29.638L171.179 37.1853L168.227 34.9413L158.454 38.4303L204.505 38.4303Z" fill="#E8BE39"/>
<path d="M208.336 38.3282C208.336 31.0596 205.449 24.0887 200.31 18.949C195.171 13.8093 188.201 10.9218 180.934 10.9218C173.666 10.9218 166.697 13.8093 161.558 18.949C156.419 24.0887 153.532 31.0596 153.532 38.3282L140.826 38.3282C140.824 35.2403 141.178 32.1624 141.88 29.1554C144.439 29.6849 147.099 29.3989 149.487 28.3376C151.875 27.2763 153.87 25.4932 155.192 23.2389C156.514 20.9846 157.096 18.3726 156.857 15.7702C156.618 13.1677 155.569 10.7058 153.858 8.73051C158.217 4.73518 163.405 1.75378 169.052 0C169.871 2.50635 171.461 4.68958 173.595 6.23762C175.73 7.78566 178.299 8.61926 180.935 8.61926C183.571 8.61926 186.14 7.78566 188.275 6.23762C190.409 4.68958 191.999 2.50635 192.818 0C198.464 1.75466 203.652 4.73675 208.01 8.73255C206.299 10.7078 205.25 13.1698 205.011 15.7722C204.772 18.3746 205.354 20.9867 206.676 23.2409C207.998 25.4952 209.993 27.2784 212.381 28.3396C214.769 29.4009 217.429 29.6869 219.988 29.1574C220.69 32.1645 221.044 35.2423 221.042 38.3303L208.336 38.3282Z" fill="#131B28"/>
<path d="M169.474 24.6051L175.004 30.8832L177.037 28.6432L172.192 23.3812L172.131 23.316L171.487 22.6644C171.377 22.5539 171.293 22.4203 171.242 22.2733C171.19 22.1263 171.172 21.9696 171.189 21.8147C171.205 21.6597 171.256 21.5105 171.338 21.3777C171.419 21.245 171.529 21.1322 171.66 21.0475L172.621 20.4223L172.662 20.402L172.756 20.3592C172.793 20.3408 172.831 20.3245 172.869 20.3103L172.621 20.4223L172.662 20.402L172.756 20.3592C172.793 20.3408 172.831 20.3245 172.869 20.3103C175.382 19.1902 177.887 18.6135 180.638 18.6181C180.638 18.6181 180.571 18.6059 180.788 18.6181C179.673 17.9225 178.523 17.2529 177.247 16.9345C175.771 16.5662 174.231 16.4908 172.715 16.7202C171.171 16.9455 169.689 17.4876 168.364 18.3126C168.187 18.4226 168.01 18.5366 167.838 18.6527C167.053 19.1738 166.301 19.7416 165.585 20.3531C164.152 21.5756 162.87 22.9655 161.767 24.493C161.488 24.8739 161.22 25.2648 160.968 25.6619L164.589 27.2381C165.218 26.3111 165.926 25.4403 166.705 24.6356C166.752 24.5799 166.803 24.5275 166.858 24.4788L167.301 24.0715C167.534 23.8539 167.844 23.7365 168.162 23.7445C168.481 23.7525 168.784 23.8852 169.007 24.1143L169.468 24.5867" fill="#E8BE39"/>
<path d="M72.3953 45.0621V39.894H64.1035V45.0621H72.3953Z" fill="#131B28"/>
<path d="M82.5252 45.0621V39.894H74.2334V45.0621H82.5252Z" fill="#131B28"/>
<path d="M23.2675 22.9786L44.7897 22.9785C45.9149 22.9784 46.9949 23.4322 47.7951 24.2414C48.5953 25.0506 49.0513 26.15 49.0641 27.301C49.0513 28.4538 48.5938 29.5547 47.7913 30.3642C46.9888 31.1737 45.9062 31.6263 44.7792 31.6234L13.582 31.5698V35.2641H50.9938C52.6852 35.2631 54.3071 34.5754 55.5031 33.352C56.6991 32.1286 57.3714 30.4695 57.3724 28.7394V25.2807C57.3724 23.5503 56.7004 21.8907 55.5041 20.6671C54.3079 19.4434 52.6855 18.756 50.9938 18.756L29.2078 18.7561L29.3858 18.574L35.1258 12.7025L42.5149 5.19092L34.0923 5.19092L19.4153 20.1588L22.1614 22.9714L23.2675 22.9786Z" fill="#131B28"/>
<path d="M9.58074 30.3643C8.77825 29.5548 8.3208 28.4538 8.30792 27.301V23.3323H-0.000289917V28.7394C0.000637054 30.4696 0.672928 32.1286 1.86894 33.352C3.06496 34.5754 4.68687 35.2631 6.37828 35.2641H43.79V31.6126L12.5393 31.5699C11.4123 31.5728 10.3832 31.1738 9.58074 30.3643Z" fill="#131B28"/>
<path d="M76.8741 20.1304V26.6194C76.8759 27.195 76.7667 27.7652 76.5527 28.2976C76.3388 28.8299 76.0243 29.3138 75.6272 29.7216C75.2302 30.1294 74.7584 30.4531 74.2389 30.6742C73.7194 30.8952 73.1623 31.0092 72.5996 31.0097H65.8721V35.2286H78.8002C79.638 35.229 80.4676 35.0606 81.2417 34.7329C82.0158 34.4051 82.7191 33.9245 83.3115 33.3186C83.9039 32.7126 84.3737 31.9931 84.6941 31.2013C85.0145 30.4095 85.1792 29.5608 85.1788 28.7039V20.1375" fill="#131B28"/>
<path d="M111.549 20.1396V26.6287C111.551 27.2042 111.441 27.7745 111.228 28.3068C111.014 28.8392 110.699 29.3231 110.302 29.7309C109.905 30.1387 109.433 30.4624 108.914 30.6834C108.394 30.9045 107.837 31.0185 107.274 31.0189H100.547V35.2378H113.475C114.313 35.2383 115.142 35.0699 115.917 34.7421C116.691 34.4144 117.394 33.9338 117.986 33.3278C118.579 32.7219 119.049 32.0024 119.369 31.2106C119.689 30.4188 119.854 29.5701 119.854 28.7131V20.1468" fill="#131B28"/>
<path d="M124.518 20.1396V26.6287C124.519 27.2042 124.41 27.7745 124.196 28.3068C123.982 28.8392 123.668 29.3231 123.271 29.7309C122.874 30.1387 122.402 30.4624 121.882 30.6834C121.363 30.9045 120.806 31.0185 120.243 31.0189H113.516V35.2378H126.444C127.282 35.2383 128.111 35.0699 128.885 34.7421C129.659 34.4144 130.363 33.9338 130.955 33.3278C131.547 32.7219 132.017 32.0024 132.338 31.2106C132.658 30.4188 132.823 29.5701 132.822 28.7131V20.1468" fill="#131B28"/>
<path d="M98.0154 20.1396V26.6287C98.0172 27.2042 97.908 27.7745 97.694 28.3068C97.4801 28.8392 97.1656 29.3231 96.7685 29.7309C96.3715 30.1387 95.8997 30.4624 95.3802 30.6834C94.8607 30.9045 94.3036 31.0185 93.7409 31.0189L75.5244 31.0189V35.2378L99.9415 35.2378C100.779 35.2383 101.609 35.0699 102.383 34.7421C103.157 34.4144 103.86 33.9338 104.453 33.3278C105.045 32.7219 105.515 32.0024 105.835 31.2106C106.156 30.4188 106.321 29.5701 106.32 28.7131V20.1468" fill="#131B28"/>
<path d="M62.9441 5.12562V26.6199C62.9446 27.1943 62.8343 27.7633 62.6197 28.2942C62.4051 28.8251 62.0903 29.3075 61.6933 29.7139C61.2964 30.1203 60.825 30.4427 60.3062 30.6626C59.7874 30.8826 59.2312 30.9958 58.6696 30.9958H50.6426V35.2147H64.8633C65.701 35.2152 66.5307 35.0468 67.3048 34.719C68.0789 34.3913 68.7822 33.9107 69.3746 33.3048C69.967 32.6988 70.4368 31.9793 70.7572 31.1875C71.0776 30.3957 71.2423 29.547 71.2418 28.6901V5.11133" fill="#131B28"/>
<path d="M2.52634 56.7595C2.09104 57.6717 1.8736 58.4991 1.874 59.2415C1.87436 59.9033 2.03201 60.4116 2.34695 60.7666C2.66996 61.1296 3.18656 61.3109 3.89675 61.3105L5.01046 61.3099C5.53503 61.3096 5.93449 61.2569 6.20882 61.1518C6.48316 61.0548 6.67272 60.8853 6.7775 60.6431C6.89036 60.409 6.94667 60.074 6.94643 59.6382L6.94435 55.8371L8.28807 55.8364L8.29014 59.6375C8.29068 60.6302 8.02479 61.4091 7.49245 61.9743C6.9682 62.5476 6.14114 62.8345 5.01129 62.8352L3.89759 62.8358C3.1874 62.8362 2.58203 62.671 2.08149 62.3404C1.58095 62.0179 1.20141 61.5823 0.942856 61.0337C0.68431 60.4931 0.554858 59.896 0.554501 59.2423C0.554224 58.7338 0.634641 58.2092 0.795752 57.6684C0.95686 57.1195 1.15834 56.615 1.4002 56.1549L2.52634 56.7595ZM3.9902 55.0882L5.46707 55.0874L5.46787 56.54L3.99099 56.5408L3.9902 55.0882ZM14.2716 56.3536C14.5624 56.8054 14.7079 57.2855 14.7082 57.794C14.7084 58.2136 14.6077 58.5647 14.4061 58.8473C14.1642 59.1864 13.8698 59.4287 13.5228 59.5741C13.1839 59.7115 12.7885 59.7803 12.3366 59.7806L11.6829 59.7809C11.2067 59.7812 10.783 59.7088 10.4117 59.5637C10.0404 59.4106 9.73764 59.2413 9.5035 59.0558L10.1444 57.8207C10.1686 57.8287 10.2494 57.8731 10.3866 57.9537C10.5238 58.0343 10.7095 58.1069 10.9436 58.1713C11.1857 58.2277 11.4359 58.2558 11.6942 58.2556L12.2994 58.2553C12.5819 58.2551 12.7998 58.2348 12.9531 58.1944C13.1145 58.1459 13.2315 58.0611 13.304 57.94C13.3605 57.8512 13.3887 57.7705 13.3886 57.6978C13.3885 57.5526 13.3077 57.363 13.1462 57.129C12.6212 56.3142 12.0073 55.3864 11.3046 54.3458L12.43 53.4978L14.2716 56.3536ZM18.5742 59.7772C17.0086 59.778 16.2253 58.8907 16.2243 57.1152L16.2093 51.7767L17.5409 51.776L17.5559 57.1145C17.5561 57.4615 17.5764 57.7117 17.6169 57.865C17.6654 58.0103 17.7582 58.1111 17.8954 58.1675C18.0327 58.2239 18.2587 58.252 18.5734 58.2519L18.9245 58.2517L18.9854 59.0385L18.9253 59.777L18.5742 59.7772ZM18.803 58.2517L21.321 58.2504L21.4061 58.9888L21.3218 59.7757L18.8039 59.777L18.803 58.2517ZM21.2028 58.2504L23.7208 58.2491L23.8059 58.9874L23.7216 59.7743L21.2037 59.7757L21.2028 58.2504ZM23.6027 58.2491L26.1206 58.2477L26.2058 58.9861L26.1215 59.773L23.6035 59.7744L23.6027 58.2491ZM26.0025 58.2478L28.5204 58.2464L28.6056 58.9848L28.5213 59.7717L26.0033 59.7731L26.0025 58.2478ZM28.4023 58.2465L30.9203 58.2451L31.0054 58.9835L30.9211 59.7704L28.4032 59.7718L28.4023 58.2465ZM30.8021 58.2452L33.3201 58.2438L33.4052 58.9822L33.3209 59.7691L30.803 59.7705L30.8021 58.2452ZM33.202 58.2439L35.7199 58.2425L35.8051 58.9809L35.7207 59.7678L33.2028 59.7692L33.202 58.2439ZM35.6018 58.2426L38.1197 58.2412L38.2049 58.9796L38.1206 59.7665L35.6026 59.7679L35.6018 58.2426ZM38.0016 58.2413L40.5196 58.2399L40.6047 58.9783L40.5204 59.7652L38.0024 59.7666L38.0016 58.2413ZM40.4014 58.2399L42.9194 58.2386L43.0045 58.977L42.9202 59.7639L40.4023 59.7652L40.4014 58.2399ZM42.8013 58.2386L45.3192 58.2373L45.4043 58.9756L45.32 59.7626L42.8021 59.7639L42.8013 58.2386ZM45.2011 58.2373L45.7579 58.237C46.573 58.2366 47.2025 58.1757 47.6463 58.0544C47.4525 57.8043 47.1294 57.3647 46.6771 56.7354L46.1562 56.0094L46.9907 54.4957L50.2228 54.494C50.6909 54.4937 51.0663 54.6469 51.3489 54.9534C51.6315 55.2599 51.773 55.627 51.7732 56.0547C51.7735 56.539 51.6002 56.9547 51.2533 57.3019L50.358 58.1498C50.6082 58.2061 50.9149 58.2342 51.278 58.234L52.4765 58.2334L52.5738 59.0081L52.4773 59.7586L50.8915 59.7595C50.488 59.7597 50.1329 59.7075 49.8261 59.6027C49.5275 59.498 49.2369 59.3448 48.9543 59.1432C48.2363 59.5552 47.3083 59.7615 46.1704 59.7621L45.2019 59.7626L45.2011 58.2373ZM48.4083 56.9161C48.5941 57.1742 48.8041 57.4566 49.0383 57.7631C49.1996 57.6016 49.4335 57.3634 49.74 57.0485L50.3086 56.4671C50.3974 56.3783 50.4417 56.2814 50.4416 56.1765C50.4416 56.0958 50.4052 56.0272 50.3326 55.9708C50.2599 55.9063 50.159 55.874 50.0299 55.8741L47.6209 55.8754L48.4083 56.9161ZM52.3533 58.2334L52.6801 58.2332C52.8415 58.2332 52.9706 58.1927 53.0674 58.112C53.1642 58.0312 53.2368 57.9021 53.2851 57.7245L53.6113 56.4895C53.7965 55.8196 54.0908 55.2989 54.4941 54.9274C54.8974 54.556 55.3816 54.3701 55.9465 54.3698C56.3984 54.3695 56.798 54.4944 57.1451 54.7444C57.5004 54.9944 57.775 55.3372 57.9689 55.7729C58.1709 56.2086 58.272 56.6968 58.2723 57.2375C58.2727 57.8751 58.1721 58.3997 57.9705 58.8114C57.769 59.2231 57.515 59.5219 57.2084 59.7076C56.9018 59.8934 56.5831 59.9864 56.2522 59.9866C55.9617 59.9867 55.655 59.9304 55.3321 59.8176C55.0173 59.7048 54.5652 59.5033 53.9759 59.2131C53.7985 59.3827 53.5968 59.5159 53.3709 59.6129C53.145 59.7099 52.919 59.7584 52.6931 59.7585L52.3541 59.7587L52.3533 58.2334ZM54.6289 57.9053C55.0971 58.1391 55.4402 58.2963 55.6581 58.3769C55.8842 58.4575 56.094 58.4977 56.2877 58.4976C56.5137 58.4975 56.6871 58.4046 56.8081 58.2189C56.9371 58.0251 57.0015 57.6982 57.0012 57.2382C57.001 56.7944 56.908 56.4555 56.7223 56.2215C56.5365 55.9795 56.2782 55.8586 55.9473 55.8588C55.7052 55.8589 55.4873 55.9518 55.2938 56.1376C55.1082 56.3152 54.9712 56.5735 54.8826 56.9125L54.6289 57.9053ZM63.7217 61.2778C64.2463 61.2775 64.6457 61.2248 64.9201 61.1198C65.1944 61.0147 65.384 60.8492 65.4888 60.6231C65.5936 60.4052 65.6499 60.0944 65.6577 59.6909L64.5319 59.6915C63.7895 59.6919 63.2002 59.4744 62.7642 59.0388C62.3281 58.6032 62.1099 57.9981 62.1095 57.2233C62.1092 56.6745 62.2098 56.1862 62.4113 55.7584C62.6209 55.3225 62.9072 54.9834 63.2702 54.7411C63.6333 54.4988 64.0488 54.3775 64.5169 54.3772C65.0092 54.377 65.441 54.4978 65.8124 54.7397C66.1918 54.9735 66.4826 55.3083 66.6846 55.744C66.8946 56.1716 66.9998 56.6638 67.0001 57.2207L67.0014 59.5933C67.0019 60.5699 66.7401 61.3488 66.2158 61.9301C65.6916 62.5115 64.8605 62.8025 63.7226 62.8031L62.3183 62.8039L62.3175 61.2786L63.7217 61.2778ZM63.4047 57.1742C63.4049 57.5374 63.4939 57.8036 63.6715 57.973C63.8572 58.1343 64.1437 58.2149 64.5311 58.2147L65.6569 58.214L65.6564 57.1972C65.6561 56.7695 65.5632 56.4346 65.3774 56.1926C65.1997 55.9506 64.9132 55.8297 64.5177 55.8299C64.1545 55.8301 63.8762 55.9553 63.6826 56.2056C63.4972 56.4478 63.4045 56.7707 63.4047 57.1742ZM76.0185 59.7458C75.3729 59.7461 74.8563 59.6213 74.4688 59.3714C74.0893 59.1133 73.7421 58.7544 73.4271 58.2945L73.2577 58.3794C72.8381 58.6056 72.5276 58.8398 72.3259 59.082C72.1324 59.3242 72.0357 59.5866 72.0358 59.869C72.0359 59.9981 72.0642 60.1595 72.1208 60.3532C72.2259 60.7002 72.4399 60.9381 72.7628 61.0671C73.0857 61.2041 73.5175 61.2725 74.0582 61.2722L76.5762 61.2708L76.577 62.7961L74.0591 62.7975C72.4127 62.7983 71.3713 62.1694 70.9348 60.9107C70.8136 60.5879 70.7529 60.2611 70.7527 59.9302C70.7524 59.3653 70.9175 58.8407 71.2482 58.3563C71.5868 57.8638 72.0587 57.46 72.6638 57.1449C72.5104 56.9029 72.4215 56.7658 72.3973 56.7335C72.0177 56.1607 71.6744 55.6283 71.3674 55.1361L72.0688 53.7678L73.0857 53.7673L75.1799 53.7661C75.5108 53.7659 75.8014 53.8505 76.0517 54.0199C76.31 54.1811 76.5038 54.3949 76.6331 54.6611C76.7704 54.9274 76.8392 55.2058 76.8393 55.4963C76.8395 55.7546 76.7831 56.0007 76.6703 56.2348C76.5655 56.4609 76.4042 56.6546 76.1864 56.8162L74.7827 57.8338C74.9603 57.9709 75.1621 58.0717 75.3881 58.1361C75.6141 58.1925 75.9006 58.2206 76.2477 58.2204L77.4219 58.2197L77.5192 58.9823L77.4227 59.745L76.0185 59.7458ZM73.4137 55.9824L73.9711 56.8416L75.411 55.7634C75.5401 55.6665 75.6046 55.5494 75.6045 55.4122C75.6045 55.3154 75.5641 55.2347 75.4833 55.1702C75.4107 55.0976 75.3098 55.0613 75.1806 55.0614L73.7038 55.0622L72.8443 55.0627L73.4137 55.9824ZM77.3091 58.2198L79.827 58.2184L79.9122 58.9568L79.8278 59.7437L77.3099 59.7451L77.3091 58.2198ZM79.7089 58.2185L82.2268 58.2171L82.312 58.9555L82.2277 59.7424L79.7097 59.7438L79.7089 58.2185ZM82.1087 58.2172L84.6267 58.2158L84.7118 58.9542L84.6275 59.7411L82.1095 59.7425L82.1087 58.2172ZM84.5085 58.2159L87.0265 58.2145L87.1116 58.9529L87.0273 59.7398L84.5094 59.7412L84.5085 58.2159ZM86.9083 58.2145L89.4263 58.2132L89.5114 58.9516L89.4271 59.7385L86.9092 59.7398L86.9083 58.2145ZM89.3082 58.2132L91.8261 58.2119L91.9113 58.9503L91.827 59.7372L89.309 59.7385L89.3082 58.2132ZM91.708 58.2119L94.2259 58.2106L94.3111 58.9489L94.2268 59.7358L91.7088 59.7372L91.708 58.2119ZM94.1078 58.2106L96.6258 58.2092L96.7109 58.9476L96.6266 59.7345L94.1087 59.7359L94.1078 58.2106ZM96.5076 58.2093L99.0256 58.2079L99.1107 58.9463L99.0264 59.7332L96.5085 59.7346L96.5076 58.2093ZM98.9075 58.208L100.336 58.2072C101.054 58.2068 101.413 57.9686 101.413 57.4924C101.413 57.1373 101.299 56.4231 101.073 55.3499L102.344 55.0224C102.619 56.2086 102.756 57.0438 102.757 57.528C102.757 57.9154 102.668 58.2786 102.491 58.6176C102.322 58.9486 102.059 59.2191 101.705 59.4291C101.358 59.6311 100.93 59.7322 100.421 59.7325L98.9083 59.7333L98.9075 58.208ZM98.2918 61.3437L99.6597 61.3429L99.6605 62.6987L98.2925 62.6995L98.2918 61.3437ZM100.531 61.3424L101.899 61.3417L101.9 62.6975L100.532 62.6983L100.531 61.3424ZM106.623 59.7291C105.057 59.7299 104.274 58.8426 104.273 57.0671L104.258 51.7286L105.59 51.7279L105.605 57.0664C105.605 57.4134 105.625 57.6636 105.666 57.8169C105.714 57.9622 105.807 58.063 105.944 58.1194C106.081 58.1758 106.307 58.204 106.622 58.2038L106.973 58.2036L107.034 58.9904L106.974 59.7289L106.623 59.7291ZM110.264 55.7807L110.265 57.5239C110.265 57.7741 110.33 57.9516 110.459 58.0564C110.588 58.1532 110.79 58.2015 111.064 58.2014L111.452 58.2011L111.525 59.0001L111.453 59.7264L111.065 59.7267C110.807 59.7268 110.541 59.6745 110.266 59.5697C110 59.4569 109.762 59.2956 109.552 59.0859C109.334 59.2958 109.08 59.4574 108.789 59.5705C108.499 59.6756 108.204 59.7282 107.906 59.7284L106.853 59.729L106.852 58.2037L107.905 58.2031C108.26 58.2029 108.518 58.1463 108.68 58.0332C108.841 57.912 108.921 57.7143 108.921 57.4399L108.92 55.7814L110.264 55.7807ZM108.144 52.9128L109.621 52.912L109.622 54.3647L108.145 54.3655L108.144 52.9128ZM114.576 57.5578C114.576 57.8564 114.71 58.0501 114.976 58.1387C115.532 57.3233 115.956 56.6895 116.246 56.2374C116.665 55.5996 117.081 55.1354 117.492 54.8446C117.903 54.5539 118.38 54.4083 118.92 54.408C119.421 54.4078 119.848 54.5367 120.204 54.7947C120.567 55.0447 120.837 55.3795 121.015 55.799C121.201 56.2105 121.294 56.6584 121.294 57.1426C121.295 57.6349 121.182 58.0788 120.956 58.4744C120.739 58.8619 120.428 59.1687 120.025 59.3949C119.621 59.613 119.161 59.7222 118.645 59.7225L115.485 59.7242C115.227 59.7244 114.948 59.668 114.65 59.5552C114.359 59.4343 114.105 59.265 113.887 59.0472C113.653 59.2572 113.387 59.4227 113.088 59.544C112.79 59.6652 112.491 59.7259 112.192 59.726L111.333 59.7265L111.332 58.2012L112.216 58.2007C112.555 58.2005 112.809 58.152 112.978 58.055C113.156 57.95 113.245 57.7845 113.244 57.5586L113.244 55.7791L114.575 55.7783L114.576 57.5578ZM118.644 58.1972C119.072 58.197 119.398 58.108 119.624 57.9304C119.858 57.7527 119.975 57.4863 119.975 57.1312C119.975 56.76 119.886 56.4695 119.708 56.2598C119.539 56.0419 119.268 55.9331 118.897 55.9333C118.598 55.9335 118.344 56.0103 118.134 56.1638C117.933 56.3091 117.683 56.5796 117.384 56.9752C117.199 57.2175 116.957 57.5444 116.658 57.9562L116.477 58.1984L118.644 58.1972ZM130.157 57.053C130.262 57.4807 130.456 57.7792 130.739 57.9485C131.029 58.1098 131.388 58.1903 131.816 58.19L132.058 58.1899L132.143 58.9283L132.059 59.7152L131.817 59.7153C131.317 59.7156 130.828 59.6029 130.352 59.3772C129.884 59.1515 129.504 58.7966 129.214 58.3125C128.988 58.6112 128.718 58.8414 128.403 59.003C128.096 59.1565 127.774 59.2333 127.435 59.2335C127.031 59.2337 126.636 59.125 126.248 58.9073C125.869 58.6896 125.574 58.3831 125.364 57.9878C125.154 57.5924 125.049 57.1769 125.048 56.7411C125.048 56.273 125.153 55.8654 125.363 55.5182C125.5 55.2841 125.649 55.0903 125.81 54.9369C125.971 54.7835 126.217 54.6139 126.548 54.4281C126.879 54.2423 127.355 54.0161 127.976 53.7494L127.831 53.1079L129.138 52.7682L130.157 57.053ZM126.525 56.2923C126.428 56.4457 126.38 56.6072 126.38 56.7766C126.38 56.9381 126.421 57.0954 126.501 57.2487C126.59 57.3939 126.707 57.5149 126.853 57.6117C127.014 57.7165 127.2 57.7689 127.41 57.7687C127.579 57.7686 127.744 57.7322 127.906 57.6595C128.075 57.5868 128.22 57.4778 128.341 57.3324C128.511 57.1386 128.595 56.8844 128.595 56.5696C128.595 56.5132 128.587 56.3961 128.571 56.2186L128.316 55.1777C127.743 55.4039 127.328 55.6059 127.07 55.7836C126.819 55.9532 126.638 56.1228 126.525 56.2923ZM131.938 58.19L132.494 58.1897C133.309 58.1892 133.939 58.1283 134.383 58.007C134.189 57.757 133.866 57.3173 133.414 56.6881L132.893 55.962L133.727 54.4484L136.959 54.4466C137.427 54.4464 137.803 54.5995 138.085 54.906C138.368 55.2125 138.509 55.5796 138.51 56.0074C138.51 56.4916 138.337 56.9073 137.99 57.2545L137.094 58.1024C137.345 58.1588 137.651 58.1868 138.015 58.1866L139.213 58.186L139.31 58.9607L139.214 59.7113L137.628 59.7121C137.224 59.7124 136.869 59.6601 136.563 59.5554C136.264 59.4506 135.973 59.2974 135.691 59.0958C134.973 59.5078 134.045 59.7141 132.907 59.7147L131.938 59.7153L131.938 58.19ZM135.145 56.8687C135.331 57.1269 135.541 57.4092 135.775 57.7157C135.936 57.5543 136.17 57.316 136.476 57.0011L137.045 56.4198C137.134 56.3309 137.178 56.2341 137.178 56.1292C137.178 56.0485 137.142 55.9799 137.069 55.9234C136.996 55.8589 136.895 55.8267 136.766 55.8267L134.357 55.8281L135.145 56.8687ZM139.09 58.1861L141.608 58.1847L141.693 58.9231L141.609 59.71L139.091 59.7113L139.09 58.1861ZM141.49 58.1847L144.008 58.1834L144.093 58.9218L144.008 59.7087L141.49 59.71L141.49 58.1847ZM143.889 58.1834L146.407 58.1821L146.492 58.9204L146.408 59.7074L143.89 59.7087L143.889 58.1834ZM146.289 58.1821L148.807 58.1807L148.892 58.9191L148.808 59.706L146.29 59.7074L146.289 58.1821ZM148.689 58.1808L151.207 58.1794L151.292 58.9178L151.208 59.7047L148.69 59.7061L148.689 58.1808ZM151.089 58.1795L153.607 58.1781L153.692 58.9165L153.608 59.7034L151.09 59.7048L151.089 58.1795ZM153.489 58.1782L156.007 58.1768L156.092 58.9152L156.007 59.7021L153.49 59.7035L153.489 58.1782ZM155.888 58.1769L158.406 58.1755L158.492 58.9139L158.407 59.7008L155.889 59.7022L155.888 58.1769ZM158.288 58.1756L160.806 58.1742L160.891 58.9126L160.807 59.6995L158.289 59.7009L158.288 58.1756ZM160.688 58.1743L163.206 58.1729L163.291 58.9113L163.207 59.6982L160.689 59.6996L160.688 58.1743ZM163.088 58.1729L165.606 58.1716L165.691 58.91L165.607 59.6969L163.089 59.6982L163.088 58.1729ZM165.488 58.1716L168.006 58.1703L168.091 58.9087L168.007 59.6956L165.489 59.6969L165.488 58.1716ZM167.888 58.1703L170.406 58.169L170.491 58.9073L170.406 59.6942L167.888 59.6956L167.888 58.1703ZM170.287 58.169L172.805 58.1676L172.891 58.906L172.806 59.6929L170.288 59.6943L170.287 58.169ZM172.687 58.1677L175.205 58.1663L175.29 58.9047L175.206 59.6916L172.688 59.693L172.687 58.1677ZM175.087 58.1664L175.922 58.1659C176.237 58.1658 176.463 58.1011 176.6 57.9719C176.737 57.8346 176.806 57.6167 176.806 57.3181L176.805 55.7444L178.148 55.7436L178.149 57.39C178.15 57.8903 178.424 58.1484 178.973 58.1643C179.57 58.1478 179.869 57.8611 179.868 57.3043L179.855 55.7427L181.199 55.742L181.2 57.3883C181.2 57.6546 181.265 57.8483 181.394 57.9693C181.531 58.0902 181.733 58.1547 181.999 58.1626C182.282 58.1544 182.5 58.0816 182.653 57.9444C182.806 57.799 182.871 57.6053 182.846 57.3632C182.822 57.105 182.769 56.7701 182.688 56.3585C182.615 55.947 182.567 55.6766 182.543 55.5475C182.526 55.4991 182.51 55.4184 182.494 55.3054L183.765 54.9779C183.862 55.3572 183.951 55.805 184.032 56.3215C184.121 56.8299 184.166 57.2293 184.166 57.5198C184.166 57.8911 184.086 58.2422 183.924 58.5732C183.771 58.9041 183.529 59.1746 183.198 59.3846C182.876 59.5866 182.476 59.6877 182 59.6879C181.71 59.6881 181.431 59.6277 181.165 59.5068C180.906 59.3778 180.684 59.1963 180.499 58.9624C180.313 59.1885 180.087 59.3661 179.821 59.4954C179.563 59.6247 179.272 59.6894 178.95 59.6896C178.675 59.6897 178.393 59.6213 178.102 59.4842C177.811 59.3391 177.589 59.1658 177.436 58.9641C177.275 59.1901 177.057 59.3678 176.783 59.4971C176.516 59.6263 176.214 59.6911 175.875 59.6913L175.088 59.6917L175.087 58.1664ZM186.988 61.271C187.512 61.2707 187.912 61.2181 188.186 61.113C188.46 61.0079 188.65 60.8424 188.755 60.6164C188.859 60.3984 188.916 60.0877 188.924 59.6841L187.798 59.6847C187.055 59.6852 186.466 59.4676 186.03 59.032C185.594 58.5965 185.376 57.9913 185.375 57.2165C185.375 56.6678 185.476 56.1795 185.677 55.7516C185.887 55.3157 186.173 54.9766 186.536 54.7343C186.899 54.492 187.315 54.3707 187.783 54.3704C188.275 54.3702 188.707 54.491 189.078 54.7329C189.458 54.9667 189.748 55.3015 189.95 55.7372C190.16 56.1648 190.266 56.657 190.266 57.2139L190.266 58.1581L190.944 58.1577L191.03 58.9324L190.945 59.683L190.267 59.6834C190.252 60.6276 189.978 61.3824 189.445 61.9476C188.921 62.5128 188.102 62.7957 186.988 62.7963L185.584 62.7971L185.583 61.2718L186.988 61.271ZM186.671 57.1674C186.671 57.5306 186.76 57.7969 186.937 57.9662C187.123 58.1275 187.41 58.2081 187.797 58.2079L188.923 58.2073L188.922 57.1904C188.922 56.7627 188.829 56.4278 188.643 56.1858C188.466 55.9438 188.179 55.8229 187.784 55.8231C187.42 55.8233 187.142 55.9485 186.948 56.1988C186.763 56.441 186.67 56.7639 186.671 57.1674ZM190.822 58.1578L192.25 58.157C192.969 58.1566 193.328 57.9184 193.327 57.4422C193.327 57.0871 193.214 56.3729 192.987 55.2997L194.258 54.9722C194.533 56.1584 194.671 56.9936 194.671 57.4778C194.671 57.8652 194.583 58.2284 194.405 58.5674C194.236 58.8984 193.974 59.1689 193.619 59.3789C193.272 59.5809 192.844 59.682 192.336 59.6823L190.823 59.6831L190.822 58.1578ZM191.218 52.238L192.586 52.2372L192.587 53.6052L191.219 53.6059L191.218 52.238ZM193.458 52.2368L194.826 52.236L194.826 53.6039L193.458 53.6047L193.458 52.2368ZM201.439 53.8303C201.996 54.4353 202.412 54.9072 202.687 55.246C202.969 55.5848 203.191 55.9277 203.353 56.2746C203.523 56.6135 203.608 56.9685 203.608 57.3397C203.608 57.7836 203.491 58.1953 203.257 58.5747C203.024 58.9461 202.709 59.2408 202.314 59.4589C201.918 59.669 201.487 59.7741 201.019 59.7744C200.55 59.7746 200.119 59.6699 199.723 59.4603C199.327 59.2427 199.013 58.9483 198.778 58.5771C198.544 58.198 198.427 57.7864 198.427 57.3426C198.426 56.9633 198.499 56.6041 198.644 56.2651C198.789 55.926 198.974 55.6152 199.2 55.3326C199.426 55.042 199.72 54.7069 200.083 54.3274L199.708 53.916L200.664 52.9713L201.439 53.8303ZM199.77 57.245C199.77 57.5355 199.88 57.7816 200.098 57.9833C200.316 58.1849 200.622 58.2856 201.018 58.2854C201.413 58.2852 201.72 58.1841 201.938 57.9823C202.155 57.7804 202.264 57.5342 202.264 57.2436C202.264 57.0338 202.171 56.7958 201.985 56.5296C201.807 56.2553 201.48 55.856 201.004 55.3317C200.544 55.8323 200.222 56.2118 200.036 56.4701C199.859 56.7285 199.77 56.9867 199.77 57.245ZM206.434 61.1999C206.959 61.1996 207.358 61.1469 207.633 61.0418C207.907 60.9368 208.097 60.7712 208.201 60.5452C208.306 60.3272 208.363 60.0165 208.37 59.613L207.245 59.6136C206.502 59.614 205.913 59.3964 205.477 58.9609C205.041 58.5253 204.823 57.9202 204.822 57.1454C204.822 56.5966 204.922 56.1083 205.124 55.6805C205.334 55.2446 205.62 54.9054 205.983 54.6631C206.346 54.4208 206.761 54.2995 207.23 54.2993C207.722 54.299 208.154 54.4198 208.525 54.6617C208.904 54.8956 209.195 55.2303 209.397 55.666C209.607 56.0936 209.712 56.5859 209.713 57.1427L209.714 59.5154C209.715 60.4919 209.453 61.2709 208.928 61.8522C208.404 62.4336 207.573 62.7245 206.435 62.7252L205.031 62.7259L205.03 61.2006L206.434 61.1999ZM206.117 57.0963C206.118 57.4594 206.206 57.7257 206.384 57.8951C206.57 58.0564 206.856 58.1369 207.244 58.1367L208.37 58.1361L208.369 57.1192C208.369 56.6915 208.276 56.3567 208.09 56.1146C207.912 55.8726 207.626 55.7517 207.23 55.7519C206.867 55.7521 206.589 55.8774 206.395 56.1277C206.21 56.3699 206.117 56.6928 206.117 57.0963ZM214.256 55.7239L214.256 57.4671C214.257 57.7173 214.321 57.8948 214.45 57.9996C214.58 58.0964 214.785 58.1447 215.068 58.1446L215.262 58.1445L215.335 58.9192L215.262 59.6697L215.069 59.6699C214.754 59.67 214.48 59.5895 214.245 59.4282C214.198 60.4774 213.883 61.2886 213.303 61.8619C212.722 62.4352 211.911 62.7222 210.87 62.7227L210.107 62.7232L210.106 61.1979L210.869 61.1974C211.385 61.1972 211.789 61.1324 212.079 61.0031C212.378 60.8738 212.592 60.6598 212.721 60.3612C212.858 60.0705 212.926 59.663 212.926 59.1384L212.924 55.7246L214.256 55.7239ZM220.923 52.7302L217.619 54.2089L219.351 55.9632C219.577 56.1971 219.747 56.4553 219.86 56.7377C219.973 57.0201 220.029 57.3066 220.03 57.5971C220.03 57.9603 219.941 58.3033 219.764 58.6262C219.595 58.9411 219.345 59.1954 219.014 59.3893C218.683 59.5751 218.292 59.6681 217.84 59.6683L215.14 59.6698L215.139 58.1445L217.863 58.143C218.113 58.1429 218.311 58.0944 218.456 57.9974C218.601 57.8925 218.674 57.7593 218.674 57.5978C218.674 57.4042 218.569 57.2025 218.359 56.9927L216.166 54.7786L216.504 53.0595L220.377 51.3384L220.923 52.7302ZM216.649 51.6794L219.711 50.334L219.929 50.8665L216.577 52.3452L216.649 51.6794Z" fill="#131B28"/>
</svg>
