<svg width="222" height="65" viewBox="0 0 222 65" fill="none" xmlns="http://www.w3.org/2000/svg">
<path d="M204.964 38.4303C204.968 34.7231 204.092 31.0676 202.408 27.7628C200.724 24.4581 198.279 21.5978 195.275 19.4158L192.203 20.8256L191.694 22.9582L188.334 24.8877L187.791 31.1348L189.114 33.503L184.94 37.5245L186.705 33.2593L184.94 31.5654L185.653 27.1662L178.29 29.638L171.639 37.1853L168.687 34.9413L158.914 38.4303L204.964 38.4303Z" fill="#E8BE39"/>
<path d="M208.796 38.3282C208.796 31.0596 205.909 24.0887 200.77 18.949C195.631 13.8093 188.661 10.9218 181.394 10.9218C174.126 10.9218 167.157 13.8093 162.018 18.949C156.879 24.0887 153.992 31.0596 153.992 38.3282L141.286 38.3282C141.284 35.2403 141.638 32.1624 142.34 29.1554C144.899 29.6849 147.559 29.3989 149.947 28.3376C152.335 27.2763 154.33 25.4932 155.652 23.2389C156.974 20.9846 157.556 18.3726 157.317 15.7702C157.078 13.1677 156.029 10.7058 154.318 8.73051C158.677 4.73518 163.865 1.75378 169.512 0C170.331 2.50635 171.921 4.68958 174.055 6.23762C176.19 7.78566 178.759 8.61926 181.395 8.61926C184.031 8.61926 186.6 7.78566 188.735 6.23762C190.869 4.68958 192.459 2.50635 193.278 0C198.924 1.75466 204.112 4.73675 208.47 8.73255C206.759 10.7078 205.71 13.1698 205.471 15.7722C205.231 18.3746 205.814 20.9867 207.136 23.2409C208.458 25.4952 210.453 27.2784 212.841 28.3396C215.229 29.4009 217.889 29.6869 220.448 29.1574C221.15 32.1645 221.504 35.2423 221.502 38.3303L208.796 38.3282Z" fill="white"/>
<path d="M169.934 24.6051L175.464 30.8832L177.497 28.6432L172.652 23.3812L172.591 23.316L171.947 22.6644C171.837 22.5539 171.753 22.4203 171.702 22.2733C171.65 22.1263 171.632 21.9696 171.649 21.8147C171.665 21.6597 171.716 21.5105 171.798 21.3777C171.879 21.245 171.989 21.1322 172.12 21.0475L173.081 20.4223L173.122 20.402L173.215 20.3592C173.252 20.3408 173.291 20.3245 173.329 20.3103L173.081 20.4223L173.122 20.402L173.215 20.3592C173.252 20.3408 173.291 20.3245 173.329 20.3103C175.842 19.1902 178.347 18.6135 181.098 18.6181C181.098 18.6181 181.031 18.6059 181.248 18.6181C180.133 17.9225 178.983 17.2529 177.707 16.9345C176.231 16.5662 174.691 16.4908 173.175 16.7202C171.631 16.9455 170.149 17.4876 168.824 18.3126C168.647 18.4226 168.47 18.5366 168.297 18.6527C167.513 19.1738 166.761 19.7416 166.045 20.3531C164.612 21.5756 163.33 22.9655 162.227 24.493C161.948 24.8739 161.68 25.2648 161.428 25.6619L165.049 27.2381C165.678 26.3111 166.386 25.4403 167.165 24.6356C167.212 24.5799 167.263 24.5275 167.318 24.4788L167.761 24.0715C167.994 23.8539 168.303 23.7365 168.622 23.7445C168.941 23.7525 169.244 23.8852 169.466 24.1143L169.928 24.5867" fill="#E8BE39"/>
<path d="M72.8543 45.0621V39.894H64.5625V45.0621H72.8543Z" fill="white"/>
<path d="M82.9847 45.0621V39.894H74.6929V45.0621H82.9847Z" fill="white"/>
<path d="M23.727 22.9786L45.2491 22.9785C46.3744 22.9784 47.4543 23.4322 48.2546 24.2414C49.0548 25.0506 49.5108 26.15 49.5236 27.301C49.5107 28.4538 49.0533 29.5547 48.2508 30.3642C47.4483 31.1737 46.3657 31.6263 45.2387 31.6234L14.0415 31.5698V35.2641H51.4533C53.1447 35.2631 54.7666 34.5754 55.9626 33.352C57.1586 32.1286 57.8309 30.4695 57.8318 28.7394V25.2807C57.8318 23.5503 57.1598 21.8907 55.9636 20.6671C54.7674 19.4434 53.145 18.756 51.4533 18.756L29.6673 18.7561L29.8453 18.574L35.5853 12.7025L42.9744 5.19092L34.5517 5.19092L19.8747 20.1588L22.6208 22.9714L23.727 22.9786Z" fill="white"/>
<path d="M10.0407 30.3643C9.23821 29.5548 8.78076 28.4538 8.76788 27.301V23.3323H0.459671V28.7394C0.460598 30.4696 1.13289 32.1286 2.3289 33.352C3.52492 34.5754 5.14683 35.2631 6.83825 35.2641H44.25V31.6126L12.9993 31.5699C11.8722 31.5728 10.8432 31.1738 10.0407 30.3643Z" fill="white"/>
<path d="M77.3335 20.1304V26.6194C77.3354 27.195 77.2261 27.7652 77.0122 28.2976C76.7982 28.8299 76.4838 29.3138 76.0867 29.7216C75.6896 30.1294 75.2179 30.4531 74.6984 30.6742C74.1788 30.8952 73.6217 31.0092 73.0591 31.0097H66.3315V35.2286H79.2597C80.0974 35.229 80.9271 35.0606 81.7012 34.7329C82.4753 34.4051 83.1786 33.9245 83.771 33.3186C84.3634 32.7126 84.8332 31.9931 85.1536 31.2013C85.474 30.4095 85.6387 29.5608 85.6382 28.7039V20.1375" fill="white"/>
<path d="M112.008 20.1396V26.6287C112.01 27.2042 111.9 27.7745 111.687 28.3068C111.473 28.8392 111.158 29.3231 110.761 29.7309C110.364 30.1387 109.892 30.4624 109.373 30.6834C108.853 30.9045 108.296 31.0185 107.733 31.0189H101.006V35.2378H113.934C114.772 35.2383 115.601 35.0699 116.376 34.7421C117.15 34.4144 117.853 33.9338 118.445 33.3278C119.038 32.7219 119.508 32.0024 119.828 31.2106C120.148 30.4188 120.313 29.5701 120.313 28.7131V20.1468" fill="white"/>
<path d="M124.977 20.1396V26.6287C124.978 27.2042 124.869 27.7745 124.655 28.3068C124.441 28.8392 124.127 29.3231 123.73 29.7309C123.333 30.1387 122.861 30.4624 122.341 30.6834C121.822 30.9045 121.265 31.0185 120.702 31.0189H113.975V35.2378H126.903C127.741 35.2383 128.57 35.0699 129.344 34.7421C130.118 34.4144 130.822 33.9338 131.414 33.3278C132.006 32.7219 132.476 32.0024 132.797 31.2106C133.117 30.4188 133.282 29.5701 133.281 28.7131V20.1468" fill="white"/>
<path d="M98.4748 20.1396V26.6287C98.4767 27.2042 98.3675 27.7745 98.1535 28.3068C97.9396 28.8392 97.6251 29.3231 97.228 29.7309C96.8309 30.1387 96.3592 30.4624 95.8397 30.6834C95.3201 30.9045 94.763 31.0185 94.2004 31.0189L75.9839 31.0189V35.2378L100.401 35.2378C101.239 35.2383 102.068 35.0699 102.843 34.7421C103.617 34.4144 104.32 33.9338 104.912 33.3278C105.505 32.7219 105.975 32.0024 106.295 31.2106C106.615 30.4188 106.78 29.5701 106.78 28.7131V20.1468" fill="white"/>
<path d="M63.4041 5.12562V26.6199C63.4045 27.1943 63.2943 27.7633 63.0797 28.2942C62.8651 28.8251 62.5503 29.3075 62.1533 29.7139C61.7563 30.1203 61.285 30.4427 60.7662 30.6626C60.2473 30.8826 59.6912 30.9958 59.1296 30.9958H51.1025V35.2147H65.3232C66.161 35.2152 66.9907 35.0468 67.7647 34.719C68.5388 34.3913 69.2421 33.9107 69.8345 33.3048C70.4269 32.6988 70.8968 31.9793 71.2171 31.1875C71.5375 30.3957 71.7022 29.547 71.7018 28.6901V5.11133" fill="white"/>
<path d="M2.98631 56.7595C2.55101 57.6717 2.33356 58.4991 2.33396 59.2415C2.33432 59.9033 2.49197 60.4116 2.80691 60.7666C3.12992 61.1296 3.64652 61.3109 4.35671 61.3105L5.47042 61.3099C5.99499 61.3096 6.39445 61.2569 6.66878 61.1518C6.94312 61.0548 7.13268 60.8853 7.23746 60.6431C7.35032 60.409 7.40663 60.074 7.40639 59.6382L7.40432 55.8371L8.74803 55.8364L8.7501 59.6375C8.75065 60.6302 8.48475 61.4091 7.95242 61.9743C7.42816 62.5476 6.6011 62.8345 5.47125 62.8352L4.35755 62.8358C3.64736 62.8362 3.04199 62.671 2.54145 62.3404C2.04091 62.0179 1.66137 61.5823 1.40282 61.0337C1.14427 60.4931 1.01482 59.896 1.01446 59.2423C1.01418 58.7338 1.0946 58.2092 1.25571 57.6684C1.41682 57.1195 1.6183 56.615 1.86016 56.1549L2.98631 56.7595ZM4.45016 55.0882L5.92703 55.0874L5.92783 56.54L4.45095 56.5408L4.45016 55.0882ZM14.7316 56.3536C15.0223 56.8054 15.1679 57.2855 15.1681 57.794C15.1684 58.2136 15.0677 58.5647 14.8661 58.8473C14.6242 59.1864 14.3297 59.4287 13.9828 59.5741C13.6439 59.7115 13.2485 59.7803 12.7965 59.7806L12.1428 59.7809C11.6667 59.7812 11.243 59.7088 10.8716 59.5637C10.5003 59.4106 10.1976 59.2413 9.96346 59.0558L10.6044 57.8207C10.6286 57.8287 10.7093 57.8731 10.8466 57.9537C10.9838 58.0343 11.1695 58.1069 11.4035 58.1713C11.6457 58.2277 11.8959 58.2558 12.1541 58.2556L12.7594 58.2553C13.0419 58.2551 13.2597 58.2348 13.4131 58.1944C13.5744 58.1459 13.6914 58.0611 13.764 57.94C13.8204 57.8512 13.8486 57.7705 13.8486 57.6978C13.8485 57.5526 13.7677 57.363 13.6062 57.129C13.0811 56.3142 12.4673 55.3864 11.7646 54.3458L12.89 53.4978L14.7316 56.3536ZM19.0342 59.7772C17.4685 59.778 16.6852 58.8907 16.6843 57.1152L16.6692 51.7767L18.0009 51.776L18.0159 57.1145C18.0161 57.4615 18.0364 57.7117 18.0768 57.865C18.1253 58.0103 18.2182 58.1111 18.3554 58.1675C18.4926 58.2239 18.7186 58.252 19.0334 58.2519L19.3844 58.2517L19.4454 59.0385L19.3853 59.777L19.0342 59.7772ZM19.263 58.2517L21.7809 58.2504L21.8661 58.9888L21.7818 59.7757L19.2638 59.777L19.263 58.2517ZM21.6628 58.2504L24.1808 58.2491L24.2659 58.9874L24.1816 59.7743L21.6636 59.7757L21.6628 58.2504ZM24.0626 58.2491L26.5806 58.2477L26.6657 58.9861L26.5814 59.773L24.0635 59.7744L24.0626 58.2491ZM26.4625 58.2478L28.9804 58.2464L29.0655 58.9848L28.9812 59.7717L26.4633 59.7731L26.4625 58.2478ZM28.8623 58.2465L31.3802 58.2451L31.4654 58.9835L31.3811 59.7704L28.8631 59.7718L28.8623 58.2465ZM31.2621 58.2452L33.78 58.2438L33.8652 58.9822L33.7809 59.7691L31.2629 59.7705L31.2621 58.2452ZM33.6619 58.2439L36.1799 58.2425L36.265 58.9809L36.1807 59.7678L33.6628 59.7692L33.6619 58.2439ZM36.0617 58.2426L38.5797 58.2412L38.6648 58.9796L38.5805 59.7665L36.0626 59.7679L36.0617 58.2426ZM38.4616 58.2413L40.9795 58.2399L41.0647 58.9783L40.9804 59.7652L38.4624 59.7666L38.4616 58.2413ZM40.8614 58.2399L43.3793 58.2386L43.4645 58.977L43.3802 59.7639L40.8622 59.7652L40.8614 58.2399ZM43.2612 58.2386L45.7792 58.2373L45.8643 58.9756L45.78 59.7626L43.2621 59.7639L43.2612 58.2386ZM45.661 58.2373L46.2179 58.237C47.033 58.2366 47.6625 58.1757 48.1063 58.0544C47.9124 57.8043 47.5894 57.3647 47.1371 56.7354L46.6162 56.0094L47.4506 54.4957L50.6828 54.494C51.1509 54.4937 51.5262 54.6469 51.8089 54.9534C52.0915 55.2599 52.2329 55.627 52.2331 56.0547C52.2334 56.539 52.0601 56.9547 51.7133 57.3019L50.8179 58.1498C51.0682 58.2061 51.3748 58.2342 51.738 58.234L52.9365 58.2334L53.0337 59.0081L52.9373 59.7586L51.3515 59.7595C50.9479 59.7597 50.5928 59.7075 50.2861 59.6027C49.9874 59.498 49.6968 59.3448 49.4142 59.1432C48.6962 59.5552 47.7682 59.7615 46.6303 59.7621L45.6619 59.7626L45.661 58.2373ZM48.8683 56.9161C49.054 57.1742 49.264 57.4566 49.4982 57.7631C49.6596 57.6016 49.8935 57.3634 50.2 57.0485L50.7686 56.4671C50.8573 56.3783 50.9017 56.2814 50.9016 56.1765C50.9016 56.0958 50.8652 56.0272 50.7925 55.9708C50.7199 55.9063 50.619 55.874 50.4899 55.8741L48.0809 55.8754L48.8683 56.9161ZM52.8132 58.2334L53.1401 58.2332C53.3015 58.2332 53.4306 58.1927 53.5274 58.112C53.6242 58.0312 53.6967 57.9021 53.7451 57.7245L54.0712 56.4895C54.2565 55.8196 54.5508 55.2989 54.9541 54.9274C55.3574 54.556 55.8415 54.3701 56.4065 54.3698C56.8584 54.3695 57.2579 54.4944 57.6051 54.7444C57.9603 54.9944 58.2349 55.3372 58.4288 55.7729C58.6308 56.2086 58.732 56.6968 58.7323 57.2375C58.7326 57.8751 58.632 58.3997 58.4305 58.8114C58.229 59.2231 57.9749 59.5219 57.6683 59.7076C57.3618 59.8934 57.043 59.9864 56.7122 59.9866C56.4216 59.9867 56.1149 59.9304 55.792 59.8176C55.4772 59.7048 55.0252 59.5033 54.4359 59.2131C54.2584 59.3827 54.0568 59.5159 53.8308 59.6129C53.6049 59.7099 53.379 59.7584 53.153 59.7585L52.8141 59.7587L52.8132 58.2334ZM55.0889 57.9053C55.5571 58.1391 55.9002 58.2963 56.1181 58.3769C56.3441 58.4575 56.554 58.4977 56.7477 58.4976C56.9736 58.4975 57.1471 58.4046 57.268 58.2189C57.3971 58.0251 57.4615 57.6982 57.4612 57.2382C57.461 56.7944 57.368 56.4555 57.1822 56.2215C56.9965 55.9795 56.7382 55.8586 56.4073 55.8588C56.1652 55.8589 55.9473 55.9518 55.7537 56.1376C55.5682 56.3152 55.4311 56.5735 55.3426 56.9125L55.0889 57.9053ZM64.1817 61.2778C64.7063 61.2775 65.1057 61.2248 65.38 61.1198C65.6544 61.0147 65.8439 60.8492 65.9487 60.6231C66.0535 60.4052 66.1098 60.0944 66.1177 59.6909L64.9919 59.6915C64.2494 59.6919 63.6602 59.4744 63.2241 59.0388C62.7881 58.6032 62.5699 57.9981 62.5694 57.2233C62.5691 56.6745 62.6697 56.1862 62.8713 55.7584C63.0809 55.3225 63.3672 54.9834 63.7302 54.7411C64.0932 54.4988 64.5088 54.3775 64.9769 54.3772C65.4692 54.377 65.901 54.4978 66.2724 54.7397C66.6518 54.9735 66.9425 55.3083 67.1445 55.744C67.3546 56.1716 67.4598 56.6638 67.4601 57.2207L67.4614 59.5933C67.4619 60.5699 67.2 61.3488 66.6758 61.9301C66.1515 62.5115 65.3204 62.8025 64.1825 62.8031L62.7783 62.8039L62.7774 61.2786L64.1817 61.2778ZM63.8647 57.1742C63.8649 57.5374 63.9538 57.8036 64.1315 57.973C64.3172 58.1343 64.6037 58.2149 64.9911 58.2147L66.1169 58.214L66.1163 57.1972C66.1161 56.7695 66.0231 56.4346 65.8374 56.1926C65.6597 55.9506 65.3731 55.8297 64.9777 55.8299C64.6145 55.8301 64.3361 55.9553 64.1426 56.2056C63.9571 56.4478 63.8645 56.7707 63.8647 57.1742ZM76.4784 59.7458C75.8328 59.7461 75.3162 59.6213 74.9287 59.3714C74.5493 59.1133 74.2021 58.7544 73.8871 58.2945L73.7176 58.3794C73.2981 58.6056 72.9875 58.8398 72.7859 59.082C72.5923 59.3242 72.4956 59.5866 72.4958 59.869C72.4959 59.9981 72.5242 60.1595 72.5808 60.3532C72.6859 60.7002 72.8999 60.9381 73.2228 61.0671C73.5457 61.2041 73.9775 61.2725 74.5182 61.2722L77.0361 61.2708L77.037 62.7961L74.519 62.7975C72.8727 62.7983 71.8313 62.1694 71.3948 60.9107C71.2735 60.5879 71.2128 60.2611 71.2126 59.9302C71.2123 59.3653 71.3775 58.8407 71.7081 58.3563C72.0468 57.8638 72.5187 57.46 73.1238 57.1449C72.9703 56.9029 72.8815 56.7658 72.8573 56.7335C72.4776 56.1607 72.1344 55.6283 71.8274 55.1361L72.5288 53.7678L73.5456 53.7673L75.6399 53.7661C75.9708 53.7659 76.2614 53.8505 76.5116 54.0199C76.77 54.1811 76.9638 54.3949 77.093 54.6611C77.2304 54.9274 77.2991 55.2058 77.2993 55.4963C77.2994 55.7546 77.2431 56.0007 77.1302 56.2348C77.0254 56.4609 76.8641 56.6546 76.6463 56.8162L75.2426 57.8338C75.4203 57.9709 75.6221 58.0717 75.8481 58.1361C76.0741 58.1925 76.3606 58.2206 76.7076 58.2204L77.8819 58.2197L77.9791 58.9823L77.8827 59.745L76.4784 59.7458ZM73.8737 55.9824L74.431 56.8416L75.871 55.7634C76.0001 55.6665 76.0646 55.5494 76.0645 55.4122C76.0644 55.3154 76.024 55.2347 75.9433 55.1702C75.8706 55.0976 75.7697 55.0613 75.6406 55.0614L74.1637 55.0622L73.3042 55.0627L73.8737 55.9824ZM77.769 58.2198L80.287 58.2184L80.3721 58.9568L80.2878 59.7437L77.7699 59.7451L77.769 58.2198ZM80.1688 58.2185L82.6868 58.2171L82.7719 58.9555L82.6876 59.7424L80.1697 59.7438L80.1688 58.2185ZM82.5687 58.2172L85.0866 58.2158L85.1718 58.9542L85.0874 59.7411L82.5695 59.7425L82.5687 58.2172ZM84.9685 58.2159L87.4864 58.2145L87.5716 58.9529L87.4873 59.7398L84.9693 59.7412L84.9685 58.2159ZM87.3683 58.2145L89.8863 58.2132L89.9714 58.9516L89.8871 59.7385L87.3691 59.7398L87.3683 58.2145ZM89.7681 58.2132L92.2861 58.2119L92.3712 58.9503L92.2869 59.7372L89.769 59.7385L89.7681 58.2132ZM92.168 58.2119L94.6859 58.2106L94.7711 58.9489L94.6867 59.7358L92.1688 59.7372L92.168 58.2119ZM94.5678 58.2106L97.0857 58.2092L97.1709 58.9476L97.0866 59.7345L94.5686 59.7359L94.5678 58.2106ZM96.9676 58.2093L99.4856 58.2079L99.5707 58.9463L99.4864 59.7332L96.9684 59.7346L96.9676 58.2093ZM99.3674 58.208L100.796 58.2072C101.514 58.2068 101.873 57.9686 101.873 57.4924C101.873 57.1373 101.759 56.4231 101.533 55.3499L102.804 55.0224C103.079 56.2086 103.216 57.0438 103.217 57.528C103.217 57.9154 103.128 58.2786 102.951 58.6176C102.782 58.9486 102.519 59.2191 102.164 59.4291C101.818 59.6311 101.39 59.7322 100.881 59.7325L99.3683 59.7333L99.3674 58.208ZM98.7518 61.3437L100.12 61.3429L100.12 62.6987L98.7525 62.6995L98.7518 61.3437ZM100.991 61.3424L102.359 61.3417L102.36 62.6975L100.992 62.6983L100.991 61.3424ZM107.083 59.7291C105.517 59.7299 104.734 58.8426 104.733 57.0671L104.718 51.7286L106.05 51.7279L106.065 57.0664C106.065 57.4134 106.085 57.6636 106.125 57.8169C106.174 57.9622 106.267 58.063 106.404 58.1194C106.541 58.1758 106.767 58.204 107.082 58.2038L107.433 58.2036L107.494 58.9904L107.434 59.7289L107.083 59.7291ZM110.724 55.7807L110.725 57.5239C110.725 57.7741 110.79 57.9516 110.919 58.0564C111.048 58.1532 111.25 58.2015 111.524 58.2014L111.912 58.2011L111.985 59.0001L111.913 59.7264L111.525 59.7267C111.267 59.7268 111.001 59.6745 110.726 59.5697C110.46 59.4569 110.222 59.2956 110.012 59.0859C109.794 59.2958 109.54 59.4574 109.249 59.5705C108.959 59.6756 108.664 59.7282 108.366 59.7284L107.313 59.729L107.312 58.2037L108.365 58.2031C108.72 58.2029 108.978 58.1463 109.14 58.0332C109.301 57.912 109.381 57.7143 109.381 57.4399L109.38 55.7814L110.724 55.7807ZM108.604 52.9128L110.081 52.912L110.082 54.3647L108.605 54.3655L108.604 52.9128ZM115.036 57.5578C115.036 57.8564 115.169 58.0501 115.436 58.1387C115.992 57.3233 116.416 56.6895 116.706 56.2374C117.125 55.5996 117.541 55.1354 117.952 54.8446C118.363 54.5539 118.84 54.4083 119.38 54.408C119.881 54.4078 120.308 54.5367 120.664 54.7947C121.027 55.0447 121.297 55.3795 121.475 55.799C121.661 56.2105 121.754 56.6584 121.754 57.1426C121.755 57.6349 121.642 58.0788 121.416 58.4744C121.198 58.8619 120.888 59.1687 120.485 59.3949C120.081 59.613 119.621 59.7222 119.105 59.7225L115.945 59.7242C115.687 59.7244 115.408 59.668 115.11 59.5552C114.819 59.4343 114.565 59.265 114.347 59.0472C114.113 59.2572 113.847 59.4227 113.548 59.544C113.25 59.6652 112.951 59.7259 112.652 59.726L111.793 59.7265L111.792 58.2012L112.676 58.2007C113.015 58.2005 113.269 58.152 113.438 58.055C113.616 57.95 113.705 57.7845 113.704 57.5586L113.703 55.7791L115.035 55.7783L115.036 57.5578ZM119.104 58.1972C119.532 58.197 119.858 58.108 120.084 57.9304C120.318 57.7527 120.435 57.4863 120.435 57.1312C120.435 56.76 120.346 56.4695 120.168 56.2598C119.998 56.0419 119.728 55.9331 119.357 55.9333C119.058 55.9335 118.804 56.0103 118.594 56.1638C118.393 56.3091 118.143 56.5796 117.844 56.9752C117.659 57.2175 117.417 57.5444 117.118 57.9562L116.937 58.1984L119.104 58.1972ZM130.617 57.053C130.722 57.4807 130.916 57.7792 131.199 57.9485C131.489 58.1098 131.848 58.1903 132.276 58.19L132.518 58.1899L132.603 58.9283L132.519 59.7152L132.277 59.7153C131.777 59.7156 131.288 59.6029 130.812 59.3772C130.344 59.1515 129.964 58.7966 129.674 58.3125C129.448 58.6112 129.178 58.8414 128.863 59.003C128.556 59.1565 128.233 59.2333 127.895 59.2335C127.491 59.2337 127.096 59.125 126.708 58.9073C126.329 58.6896 126.034 58.3831 125.824 57.9878C125.614 57.5924 125.509 57.1769 125.508 56.7411C125.508 56.273 125.613 55.8654 125.822 55.5182C125.96 55.2841 126.109 55.0903 126.27 54.9369C126.431 54.7835 126.677 54.6139 127.008 54.4281C127.339 54.2423 127.815 54.0161 128.436 53.7494L128.291 53.1079L129.598 52.7682L130.617 57.053ZM126.985 56.2923C126.888 56.4457 126.84 56.6072 126.84 56.7766C126.84 56.9381 126.881 57.0954 126.961 57.2487C127.05 57.3939 127.167 57.5149 127.313 57.6117C127.474 57.7165 127.66 57.7689 127.87 57.7687C128.039 57.7686 128.204 57.7322 128.366 57.6595C128.535 57.5868 128.68 57.4778 128.801 57.3324C128.971 57.1386 129.055 56.8844 129.055 56.5696C129.055 56.5132 129.047 56.3961 129.031 56.2186L128.776 55.1777C128.203 55.4039 127.788 55.6059 127.529 55.7836C127.279 55.9532 127.098 56.1228 126.985 56.2923ZM132.398 58.19L132.954 58.1897C133.769 58.1892 134.399 58.1283 134.843 58.007C134.649 57.757 134.326 57.3173 133.874 56.6881L133.353 55.962L134.187 54.4484L137.419 54.4466C137.887 54.4464 138.263 54.5995 138.545 54.906C138.828 55.2125 138.969 55.5796 138.97 56.0074C138.97 56.4916 138.797 56.9073 138.45 57.2545L137.554 58.1024C137.805 58.1588 138.111 58.1868 138.474 58.1866L139.673 58.186L139.77 58.9607L139.674 59.7113L138.088 59.7121C137.684 59.7124 137.329 59.6601 137.023 59.5554C136.724 59.4506 136.433 59.2974 136.151 59.0958C135.433 59.5078 134.505 59.7141 133.367 59.7147L132.398 59.7153L132.398 58.19ZM135.605 56.8687C135.79 57.1269 136 57.4092 136.235 57.7157C136.396 57.5543 136.63 57.316 136.936 57.0011L137.505 56.4198C137.594 56.3309 137.638 56.2341 137.638 56.1292C137.638 56.0485 137.602 55.9799 137.529 55.9234C137.456 55.8589 137.355 55.8267 137.226 55.8267L134.817 55.8281L135.605 56.8687ZM139.55 58.1861L142.068 58.1847L142.153 58.9231L142.068 59.71L139.551 59.7113L139.55 58.1861ZM141.95 58.1847L144.467 58.1834L144.553 58.9218L144.468 59.7087L141.95 59.71L141.95 58.1847ZM144.349 58.1834L146.867 58.1821L146.952 58.9204L146.868 59.7074L144.35 59.7087L144.349 58.1834ZM146.749 58.1821L149.267 58.1807L149.352 58.9191L149.268 59.706L146.75 59.7074L146.749 58.1821ZM149.149 58.1808L151.667 58.1794L151.752 58.9178L151.668 59.7047L149.15 59.7061L149.149 58.1808ZM151.549 58.1795L154.067 58.1781L154.152 58.9165L154.068 59.7034L151.55 59.7048L151.549 58.1795ZM153.949 58.1782L156.467 58.1768L156.552 58.9152L156.467 59.7021L153.949 59.7035L153.949 58.1782ZM156.348 58.1769L158.866 58.1755L158.952 58.9139L158.867 59.7008L156.349 59.7022L156.348 58.1769ZM158.748 58.1756L161.266 58.1742L161.351 58.9126L161.267 59.6995L158.749 59.7009L158.748 58.1756ZM161.148 58.1743L163.666 58.1729L163.751 58.9113L163.667 59.6982L161.149 59.6996L161.148 58.1743ZM163.548 58.1729L166.066 58.1716L166.151 58.91L166.067 59.6969L163.549 59.6982L163.548 58.1729ZM165.948 58.1716L168.466 58.1703L168.551 58.9087L168.467 59.6956L165.949 59.6969L165.948 58.1716ZM168.348 58.1703L170.866 58.169L170.951 58.9073L170.866 59.6942L168.348 59.6956L168.348 58.1703ZM170.747 58.169L173.265 58.1676L173.35 58.906L173.266 59.6929L170.748 59.6943L170.747 58.169ZM173.147 58.1677L175.665 58.1663L175.75 58.9047L175.666 59.6916L173.148 59.693L173.147 58.1677ZM175.547 58.1664L176.382 58.1659C176.697 58.1658 176.923 58.1011 177.06 57.9719C177.197 57.8346 177.266 57.6167 177.266 57.3181L177.265 55.7444L178.608 55.7436L178.609 57.39C178.61 57.8903 178.884 58.1484 179.433 58.1643C180.03 58.1478 180.329 57.8611 180.328 57.3043L180.315 55.7427L181.659 55.742L181.66 57.3883C181.66 57.6546 181.725 57.8483 181.854 57.9693C181.991 58.0902 182.193 58.1547 182.459 58.1626C182.742 58.1544 182.96 58.0816 183.113 57.9444C183.266 57.799 183.331 57.6053 183.306 57.3632C183.282 57.105 183.229 56.7701 183.148 56.3585C183.075 55.947 183.027 55.6766 183.003 55.5475C182.986 55.4991 182.97 55.4184 182.954 55.3054L184.225 54.9779C184.322 55.3572 184.411 55.805 184.492 56.3215C184.581 56.8299 184.626 57.2293 184.626 57.5198C184.626 57.8911 184.546 58.2422 184.384 58.5732C184.231 58.9041 183.989 59.1746 183.658 59.3846C183.336 59.5866 182.936 59.6877 182.46 59.6879C182.17 59.6881 181.891 59.6277 181.625 59.5068C181.366 59.3778 181.144 59.1963 180.959 58.9624C180.773 59.1885 180.547 59.3661 180.281 59.4954C180.023 59.6247 179.732 59.6894 179.41 59.6896C179.135 59.6897 178.853 59.6213 178.562 59.4842C178.271 59.3391 178.049 59.1658 177.896 58.9641C177.735 59.1901 177.517 59.3678 177.243 59.4971C176.976 59.6263 176.674 59.6911 176.335 59.6913L175.548 59.6917L175.547 58.1664ZM187.448 61.271C187.972 61.2707 188.372 61.2181 188.646 61.113C188.92 61.0079 189.11 60.8424 189.215 60.6164C189.319 60.3984 189.376 60.0877 189.384 59.6841L188.258 59.6847C187.515 59.6852 186.926 59.4676 186.49 59.032C186.054 58.5965 185.836 57.9913 185.835 57.2165C185.835 56.6678 185.936 56.1795 186.137 55.7516C186.347 55.3157 186.633 54.9766 186.996 54.7343C187.359 54.492 187.775 54.3707 188.243 54.3704C188.735 54.3702 189.167 54.491 189.538 54.7329C189.918 54.9667 190.208 55.3015 190.41 55.7372C190.62 56.1648 190.726 56.657 190.726 57.2139L190.726 58.1581L191.404 58.1577L191.489 58.9324L191.405 59.683L190.727 59.6834C190.712 60.6276 190.438 61.3824 189.905 61.9476C189.381 62.5128 188.562 62.7957 187.448 62.7963L186.044 62.7971L186.043 61.2718L187.448 61.271ZM187.131 57.1674C187.131 57.5306 187.22 57.7969 187.397 57.9662C187.583 58.1275 187.87 58.2081 188.257 58.2079L189.383 58.2073L189.382 57.1904C189.382 56.7627 189.289 56.4278 189.103 56.1858C188.926 55.9438 188.639 55.8229 188.244 55.8231C187.88 55.8233 187.602 55.9485 187.408 56.1988C187.223 56.441 187.13 56.7639 187.131 57.1674ZM191.282 58.1578L192.71 58.157C193.429 58.1566 193.788 57.9184 193.787 57.4422C193.787 57.0871 193.674 56.3729 193.447 55.2997L194.718 54.9722C194.993 56.1584 195.131 56.9936 195.131 57.4778C195.131 57.8652 195.043 58.2284 194.865 58.5674C194.696 58.8984 194.434 59.1689 194.079 59.3789C193.732 59.5809 193.304 59.682 192.796 59.6823L191.283 59.6831L191.282 58.1578ZM191.678 52.238L193.046 52.2372L193.047 53.6052L191.679 53.6059L191.678 52.238ZM193.918 52.2368L195.286 52.236L195.286 53.6039L193.918 53.6047L193.918 52.2368ZM201.899 53.8303C202.456 54.4353 202.872 54.9072 203.147 55.246C203.429 55.5848 203.651 55.9277 203.813 56.2746C203.983 56.6135 204.068 56.9685 204.068 57.3397C204.068 57.7836 203.951 58.1953 203.717 58.5747C203.484 58.9461 203.169 59.2408 202.774 59.4589C202.378 59.669 201.947 59.7741 201.478 59.7744C201.01 59.7746 200.579 59.6699 200.183 59.4603C199.787 59.2427 199.473 58.9483 199.238 58.5771C199.004 58.198 198.887 57.7864 198.887 57.3426C198.886 56.9633 198.959 56.6041 199.104 56.2651C199.249 55.926 199.434 55.6152 199.66 55.3326C199.886 55.042 200.18 54.7069 200.543 54.3274L200.168 53.916L201.124 52.9713L201.899 53.8303ZM200.23 57.245C200.23 57.5355 200.339 57.7816 200.557 57.9833C200.775 58.1849 201.082 58.2856 201.478 58.2854C201.873 58.2852 202.18 58.1841 202.398 57.9823C202.615 57.7804 202.724 57.5342 202.724 57.2436C202.724 57.0338 202.631 56.7958 202.445 56.5296C202.267 56.2553 201.94 55.856 201.464 55.3317C201.004 55.8323 200.682 56.2118 200.496 56.4701C200.319 56.7285 200.23 56.9867 200.23 57.245ZM206.894 61.1999C207.419 61.1996 207.818 61.1469 208.093 61.0418C208.367 60.9368 208.557 60.7712 208.661 60.5452C208.766 60.3272 208.822 60.0165 208.83 59.613L207.705 59.6136C206.962 59.614 206.373 59.3964 205.937 58.9609C205.501 58.5253 205.282 57.9202 205.282 57.1454C205.282 56.5966 205.382 56.1083 205.584 55.6805C205.794 55.2446 206.08 54.9054 206.443 54.6631C206.806 54.4208 207.221 54.2995 207.69 54.2993C208.182 54.299 208.614 54.4198 208.985 54.6617C209.364 54.8956 209.655 55.2303 209.857 55.666C210.067 56.0936 210.172 56.5859 210.173 57.1427L210.174 59.5154C210.175 60.4919 209.913 61.2709 209.388 61.8522C208.864 62.4336 208.033 62.7245 206.895 62.7252L205.491 62.7259L205.49 61.2006L206.894 61.1999ZM206.577 57.0963C206.578 57.4594 206.666 57.7257 206.844 57.8951C207.03 58.0564 207.316 58.1369 207.704 58.1367L208.83 58.1361L208.829 57.1192C208.829 56.6915 208.736 56.3567 208.55 56.1146C208.372 55.8726 208.086 55.7517 207.69 55.7519C207.327 55.7521 207.049 55.8774 206.855 56.1277C206.67 56.3699 206.577 56.6928 206.577 57.0963ZM214.715 55.7239L214.716 57.4671C214.717 57.7173 214.781 57.8948 214.91 57.9996C215.04 58.0964 215.245 58.1447 215.528 58.1446L215.722 58.1445L215.795 58.9192L215.722 59.6697L215.529 59.6699C215.214 59.67 214.94 59.5895 214.705 59.4282C214.658 60.4774 214.343 61.2886 213.762 61.8619C213.182 62.4352 212.371 62.7222 211.33 62.7227L210.567 62.7232L210.566 61.1979L211.329 61.1974C211.845 61.1972 212.249 61.1324 212.539 61.0031C212.838 60.8738 213.052 60.6598 213.181 60.3612C213.318 60.0705 213.386 59.663 213.386 59.1384L213.384 55.7246L214.715 55.7239ZM221.383 52.7302L218.079 54.2089L219.811 55.9632C220.037 56.1971 220.207 56.4553 220.32 56.7377C220.433 57.0201 220.489 57.3066 220.49 57.5971C220.49 57.9603 220.401 58.3033 220.224 58.6262C220.055 58.9411 219.804 59.1954 219.474 59.3893C219.143 59.5751 218.752 59.6681 218.3 59.6683L215.6 59.6698L215.599 58.1445L218.323 58.143C218.573 58.1429 218.771 58.0944 218.916 57.9974C219.061 57.8925 219.134 57.7593 219.134 57.5978C219.134 57.4042 219.029 57.2025 218.819 56.9927L216.626 54.7786L216.964 53.0595L220.837 51.3384L221.383 52.7302ZM217.109 51.6794L220.171 50.334L220.389 50.8665L217.037 52.3452L217.109 51.6794Z" fill="white"/>
</svg>
