<svg width="726" height="201" viewBox="0 0 726 201" fill="none" xmlns="http://www.w3.org/2000/svg">
<path d="M209.684 126.975C209.695 114.801 206.818 102.797 201.288 91.9447C195.758 81.0922 187.731 71.6993 177.865 64.5339L167.776 69.1636L166.104 76.1668L155.072 82.503L153.287 103.018L157.633 110.795L143.927 124.001L149.724 109.994L143.927 104.432L146.267 89.9854L122.09 98.1024L100.247 122.887L90.5519 115.518L58.4587 126.975L209.684 126.975Z" fill="#E8BE39"/>
<path d="M222.266 126.64C222.266 102.771 212.786 79.8794 195.91 63.0013C179.035 46.1231 156.146 36.641 132.281 36.641C108.415 36.641 85.5267 46.1231 68.6511 63.0013C51.7756 79.8794 42.2949 102.771 42.2949 126.64L0.571561 126.64C0.565029 116.5 1.72611 106.393 4.03181 96.5179C12.4347 98.2567 21.1712 97.3175 29.0127 93.8324C36.8542 90.3474 43.4063 84.4917 47.7476 77.0889C52.0889 69.6861 54.0009 61.1086 53.215 52.5625C52.429 44.0164 48.9845 35.9316 43.3659 29.4451C57.6799 16.3249 74.7188 6.53436 93.2612 0.775146C95.9508 9.0057 101.173 16.1752 108.182 21.2588C115.19 26.3423 123.626 29.0798 132.284 29.0798C140.942 29.0798 149.378 26.3423 156.386 21.2588C163.395 16.1752 168.617 9.0057 171.307 0.775146C189.847 6.53722 206.884 16.3301 221.196 29.4518C215.577 35.9383 212.132 44.023 211.346 52.5691C210.56 61.1153 212.472 69.6928 216.814 77.0956C221.155 84.4984 227.707 90.354 235.549 93.8391C243.39 97.3242 252.127 98.2634 260.53 96.5246C262.835 106.399 263.996 116.507 263.99 126.647L222.266 126.64Z" fill="#131B28"/>
<path d="M94.6495 81.5748L112.809 102.192L119.485 94.8356L103.576 77.5558L103.375 77.3418L101.259 75.2019C100.899 74.8391 100.624 74.4004 100.454 73.9177C100.285 73.4349 100.225 72.9204 100.279 72.4116C100.334 71.9028 100.501 71.4126 100.769 70.9767C101.036 70.5408 101.398 70.1703 101.827 69.8922L104.984 67.8392L105.118 67.7724L105.425 67.6319C105.547 67.5716 105.672 67.518 105.799 67.4714L104.984 67.8392L105.118 67.7724L105.425 67.6319C105.547 67.5716 105.672 67.518 105.799 67.4714C114.051 63.793 122.277 61.8994 131.31 61.9144C131.31 61.9144 131.09 61.8742 131.804 61.9144C128.141 59.6302 124.364 57.4313 120.175 56.3858C115.329 55.1762 110.271 54.9287 105.292 55.6819C100.221 56.4216 95.3566 58.2019 91.0041 60.9113C90.4233 61.2724 89.8425 61.6469 89.275 62.028C86.6997 63.7392 84.2295 65.6038 81.8776 67.6119C77.1719 71.6266 72.9626 76.1907 69.3394 81.207C68.4248 82.4575 67.5434 83.7415 66.7156 85.0455L78.6062 90.2214C80.6724 87.1771 82.9978 84.3177 85.5563 81.6751C85.7112 81.4921 85.8785 81.3201 86.057 81.1602L87.5124 79.8228C88.2791 79.1081 89.2947 78.7225 90.3417 78.7488C91.3887 78.775 92.3839 79.211 93.1139 79.9632L94.6294 81.5146" fill="#E8BE39"/>
<path d="M2.95549 190.117L2.94046 162.586L7.30103 162.583L7.31606 190.114L2.95549 190.117ZM12.6175 190.111L12.6066 170.119L16.5976 170.117L16.5998 174.034L16.1191 173.517C16.6111 172.26 17.3989 171.311 18.4826 170.67C19.5662 170.005 20.8224 169.671 22.2513 169.67C23.7295 169.67 25.0354 169.989 26.169 170.629C27.3026 171.269 28.19 172.155 28.8311 173.288C29.4723 174.421 29.7933 175.727 29.7941 177.205L29.8011 190.102L25.6623 190.104L25.6558 178.316C25.6553 177.306 25.47 176.456 25.1001 175.766C24.7302 175.052 24.2002 174.51 23.5102 174.141C22.8448 173.747 22.081 173.551 21.2187 173.551C20.3565 173.552 19.5806 173.749 18.891 174.144C18.226 174.514 17.7089 175.056 17.3398 175.771C16.9706 176.485 16.7863 177.335 16.7869 178.321L16.7933 190.109L12.6175 190.111ZM43.509 190.538C41.5874 190.539 39.8626 190.084 38.3347 189.173C36.8314 188.238 35.6358 186.982 34.7481 185.406C33.8849 183.83 33.4528 182.056 33.4518 180.085C33.4507 178.114 33.8932 176.34 34.7792 174.763C35.6652 173.186 36.8594 171.941 38.3617 171.029C39.864 170.117 41.5636 169.66 43.4606 169.659C45.0619 169.658 46.4787 169.978 47.7108 170.617C48.943 171.257 49.9166 172.144 50.6316 173.276L50.004 174.238L49.9973 162.117L54.1362 162.114L54.1515 190.089L50.1974 190.091L50.1952 186.026L50.676 186.802C49.9868 188.009 49.0019 188.934 47.7212 189.575C46.4405 190.216 45.0364 190.537 43.509 190.538ZM43.9133 186.657C45.0712 186.657 46.1058 186.373 47.017 185.806C47.9529 185.239 48.6792 184.462 49.196 183.477C49.7375 182.466 50.0078 181.333 50.0071 180.076C50.0065 178.82 49.7349 177.699 49.1923 176.714C48.6744 175.729 47.9472 174.953 47.0108 174.387C46.0989 173.821 45.0641 173.538 43.9062 173.539C42.7483 173.539 41.7014 173.823 40.7655 174.39C39.8297 174.958 39.1034 175.734 38.5865 176.72C38.0697 177.705 37.8116 178.827 37.8123 180.083C37.813 181.339 38.0723 182.473 38.5902 183.482C39.1081 184.467 39.823 185.243 40.7348 185.809C41.6713 186.375 42.7308 186.658 43.9133 186.657ZM66.1589 190.525C64.6561 190.526 63.3378 190.194 62.2042 189.53C61.0706 188.841 60.1832 187.893 59.542 186.686C58.9254 185.454 58.6167 184.038 58.6158 182.437L58.6091 170.094L62.7849 170.092L62.7914 182.065C62.7919 182.976 62.9771 183.777 63.347 184.467C63.717 185.156 64.2346 185.698 64.9 186.092C65.5654 186.461 66.3292 186.645 67.1914 186.645C68.0783 186.644 68.8543 186.447 69.5192 186.052C70.1842 185.658 70.7012 185.103 71.0704 184.388C71.4642 183.674 71.6608 182.836 71.6603 181.875L71.6538 170.087L75.7927 170.085L75.8036 190.077L71.8495 190.079L71.8474 186.162L72.2911 186.679C71.8237 187.911 71.0482 188.86 69.9646 189.526C68.8809 190.191 67.6124 190.525 66.1589 190.525ZM88.0702 190.514C86.0255 190.515 84.2268 190.011 82.6741 189.001C81.1461 187.992 80.0737 186.638 79.4569 184.938L82.6711 183.421C83.2137 184.554 83.9533 185.453 84.8898 186.118C85.851 186.782 86.9105 187.114 88.0684 187.114C89.0538 187.113 89.8544 186.891 90.47 186.447C91.0857 186.003 91.3933 185.4 91.3929 184.636C91.3926 184.143 91.2569 183.749 90.9857 183.454C90.7146 183.134 90.3695 182.875 89.9506 182.678C89.5563 182.481 89.1498 182.334 88.7309 182.235L85.5893 181.35C83.8645 180.859 82.5707 180.12 81.7079 179.135C80.8698 178.126 80.4503 176.956 80.4496 175.625C80.4489 174.418 80.7563 173.371 81.3717 172.484C81.9871 171.572 82.8367 170.869 83.9204 170.376C85.0041 169.883 86.2235 169.636 87.5784 169.635C89.4015 169.634 91.0277 170.089 92.4571 170.999C93.8865 171.886 94.8972 173.129 95.4894 174.73L92.2752 176.247C91.8805 175.286 91.2519 174.523 90.3893 173.957C89.5514 173.391 88.6027 173.108 87.5434 173.108C86.6318 173.109 85.9052 173.331 85.3635 173.775C84.8217 174.194 84.551 174.748 84.5514 175.438C84.5516 175.906 84.675 176.3 84.9216 176.621C85.1681 176.916 85.4885 177.162 85.8828 177.359C86.277 177.531 86.6836 177.679 87.1025 177.802L90.355 178.761C92.0058 179.228 93.275 179.966 94.1624 180.976C95.0499 181.961 95.494 183.143 95.4947 184.523C95.4954 185.705 95.1757 186.753 94.5356 187.665C93.9202 188.552 93.0583 189.254 91.95 189.772C90.8417 190.266 89.5484 190.513 88.0702 190.514ZM108.237 190.281C106.143 190.282 104.516 189.692 103.358 188.51C102.199 187.328 101.619 185.665 101.618 183.522L101.613 173.84L98.1022 173.842L98.1002 170.072L98.6545 170.072C99.5906 170.072 100.317 169.8 100.834 169.258C101.351 168.716 101.61 167.977 101.609 167.04L101.608 165.488L105.784 165.486L105.787 170.068L110.332 170.066L110.334 173.835L105.789 173.838L105.794 183.335C105.794 184.025 105.905 184.616 106.127 185.108C106.349 185.576 106.707 185.946 107.2 186.216C107.693 186.463 108.333 186.585 109.121 186.585C109.319 186.585 109.54 186.572 109.787 186.548C110.033 186.523 110.267 186.498 110.489 186.473L110.491 190.058C110.146 190.107 109.764 190.157 109.345 190.206C108.926 190.256 108.557 190.281 108.237 190.281ZM114.566 190.056L114.555 170.064L118.546 170.061L118.548 174.089L118.178 173.498C118.621 172.192 119.335 171.256 120.32 170.689C121.305 170.097 122.487 169.8 123.867 169.8L125.087 169.799L125.089 173.605L123.352 173.606C121.972 173.607 120.851 174.039 119.99 174.902C119.152 175.74 118.734 176.947 118.735 178.524L118.742 190.053L114.566 190.056ZM127.954 190.048L127.943 170.056L132.119 170.054L132.13 190.046L127.954 190.048ZM127.942 167.322L127.939 162.518L132.115 162.515L132.118 167.319L127.942 167.322ZM142.999 190.484C141.644 190.484 140.449 190.251 139.414 189.783C138.404 189.291 137.615 188.626 137.048 187.789C136.481 186.927 136.197 185.917 136.196 184.759C136.196 183.675 136.429 182.702 136.897 181.84C137.389 180.977 138.14 180.25 139.15 179.658C140.16 179.066 141.428 178.647 142.956 178.4L149.902 177.25L149.904 180.539L143.77 181.614C142.662 181.812 141.849 182.17 141.332 182.687C140.815 183.18 140.557 183.821 140.557 184.609C140.557 185.373 140.841 186.001 141.408 186.493C141.999 186.961 142.751 187.195 143.663 187.194C144.796 187.194 145.781 186.947 146.618 186.454C147.48 185.96 148.145 185.307 148.613 184.494C149.08 183.656 149.314 182.732 149.313 181.722L149.311 176.585C149.31 175.6 148.94 174.799 148.201 174.184C147.486 173.544 146.525 173.224 145.318 173.225C144.209 173.225 143.236 173.522 142.399 174.113C141.586 174.68 140.983 175.42 140.589 176.331L137.115 174.597C137.484 173.611 138.087 172.748 138.924 172.009C139.761 171.245 140.734 170.653 141.843 170.233C142.976 169.814 144.17 169.604 145.427 169.603C147.003 169.602 148.395 169.897 149.603 170.488C150.835 171.078 151.784 171.903 152.45 172.962C153.14 173.997 153.486 175.203 153.486 176.583L153.494 190.034L149.503 190.037L149.501 186.415L150.351 186.525C149.883 187.339 149.28 188.041 148.541 188.633C147.827 189.224 147.002 189.681 146.066 190.001C145.155 190.322 144.132 190.483 142.999 190.484ZM158.376 190.032L158.361 162.058L162.537 162.055L162.552 190.029L158.376 190.032ZM171.862 190.024L181.529 162.488L186.924 162.485L196.621 190.011L191.965 190.013L189.855 183.843L178.658 183.849L176.518 190.022L171.862 190.024ZM179.912 179.968L188.522 179.964L183.637 165.554L184.856 165.554L179.912 179.968ZM199.48 190.009L199.47 170.017L203.461 170.015L203.463 173.932L202.982 173.415C203.474 172.158 204.262 171.209 205.346 170.568C206.429 169.902 207.685 169.569 209.114 169.568C210.592 169.568 211.898 169.887 213.032 170.527C214.166 171.167 215.053 172.053 215.694 173.186C216.335 174.319 216.656 175.625 216.657 177.103L216.664 190L212.525 190.002L212.519 178.214C212.518 177.204 212.333 176.354 211.963 175.664C211.593 174.95 211.063 174.408 210.373 174.039C209.708 173.645 208.944 173.449 208.082 173.449C207.219 173.45 206.443 173.647 205.754 174.042C205.089 174.412 204.572 174.954 204.203 175.669C203.834 176.383 203.649 177.233 203.65 178.219L203.656 190.007L199.48 190.009ZM230.372 190.436C228.45 190.437 226.726 189.982 225.198 189.071C223.694 188.136 222.499 186.88 221.611 185.304C220.748 183.728 220.316 181.954 220.315 179.983C220.314 178.012 220.756 176.238 221.642 174.661C222.528 173.084 223.722 171.839 225.225 170.927C226.727 170.015 228.427 169.558 230.324 169.557C231.925 169.556 233.342 169.875 234.574 170.515C235.806 171.155 236.78 172.042 237.495 173.174L236.867 174.136L236.86 162.015L240.999 162.012L241.014 189.987L237.06 189.989L237.058 185.924L237.539 186.7C236.85 187.907 235.865 188.831 234.584 189.473C233.303 190.114 231.899 190.435 230.372 190.436ZM230.776 186.555C231.934 186.555 232.969 186.271 233.88 185.704C234.816 185.137 235.542 184.36 236.059 183.374C236.6 182.364 236.871 181.231 236.87 179.974C236.869 178.718 236.598 177.597 236.055 176.612C235.537 175.627 234.81 174.851 233.874 174.285C232.962 173.719 231.927 173.436 230.769 173.437C229.611 173.437 228.564 173.721 227.628 174.288C226.693 174.856 225.966 175.632 225.449 176.618C224.933 177.603 224.675 178.725 224.675 179.981C224.676 181.237 224.935 182.37 225.453 183.38C225.971 184.365 226.686 185.141 227.598 185.707C228.534 186.273 229.594 186.556 230.776 186.555ZM252.756 189.98L252.741 162.449L256.806 162.447L267.16 176.78L265.128 176.781L275.283 162.437L279.347 162.435L279.362 189.966L275.039 189.968L275.027 167.574L276.653 168.016L266.277 182.212L265.833 182.213L255.663 168.028L257.104 167.584L257.116 189.978L252.756 189.98ZM284.648 189.963L284.637 169.971L288.813 169.968L288.824 189.96L284.648 189.963ZM284.635 167.236L284.633 162.432L288.809 162.43L288.811 167.234L284.635 167.236ZM293.706 189.958L293.695 169.966L297.686 169.964L297.688 173.881L297.207 173.364C297.699 172.107 298.487 171.158 299.571 170.517C300.655 169.851 301.911 169.518 303.34 169.517C304.818 169.516 306.124 169.836 307.257 170.476C308.391 171.116 309.278 172.002 309.919 173.135C310.561 174.268 310.882 175.573 310.882 177.051L310.889 189.948L306.751 189.951L306.744 178.162C306.744 177.152 306.558 176.302 306.188 175.613C305.819 174.899 305.289 174.357 304.599 173.988C303.933 173.594 303.169 173.397 302.307 173.398C301.445 173.398 300.669 173.596 299.979 173.99C299.314 174.36 298.797 174.902 298.428 175.617C298.059 176.332 297.875 177.182 297.875 178.167L297.882 189.955L293.706 189.958ZM324.745 190.384C322.75 190.385 320.976 189.931 319.423 189.02C317.895 188.085 316.7 186.829 315.836 185.253C314.973 183.652 314.541 181.866 314.54 179.895C314.539 177.875 314.969 176.088 315.831 174.536C316.717 172.983 317.898 171.763 319.376 170.876C320.854 169.963 322.529 169.506 324.401 169.505C325.904 169.505 327.247 169.763 328.43 170.279C329.612 170.796 330.61 171.51 331.424 172.421C332.237 173.307 332.854 174.33 333.273 175.487C333.717 176.645 333.94 177.876 333.941 179.182C333.941 179.502 333.929 179.835 333.904 180.18C333.88 180.525 333.831 180.845 333.757 181.141L317.83 181.15L317.828 177.824L331.39 177.816L329.395 179.332C329.641 178.125 329.554 177.054 329.135 176.118C328.74 175.157 328.124 174.406 327.286 173.864C326.473 173.298 325.512 173.015 324.403 173.016C323.294 173.017 322.309 173.301 321.447 173.868C320.585 174.41 319.92 175.199 319.453 176.234C318.985 177.244 318.801 178.476 318.901 179.929C318.778 181.285 318.964 182.467 319.457 183.477C319.975 184.487 320.69 185.275 321.602 185.841C322.538 186.407 323.598 186.69 324.78 186.689C325.987 186.688 327.009 186.417 327.847 185.874C328.709 185.332 329.386 184.629 329.878 183.767L333.279 185.428C332.885 186.364 332.27 187.214 331.432 187.979C330.62 188.718 329.635 189.31 328.477 189.754C327.344 190.173 326.1 190.384 324.745 190.384ZM345.413 190.373C343.368 190.374 341.569 189.87 340.017 188.861C338.489 187.852 337.416 186.497 336.799 184.798L340.014 183.281C340.556 184.414 341.296 185.313 342.232 185.977C343.193 186.642 344.253 186.974 345.411 186.973C346.396 186.973 347.197 186.751 347.813 186.307C348.428 185.863 348.736 185.259 348.735 184.495C348.735 184.003 348.599 183.609 348.328 183.313C348.057 182.993 347.712 182.735 347.293 182.538C346.899 182.341 346.492 182.193 346.073 182.095L342.932 181.21C341.207 180.718 339.913 179.98 339.05 178.995C338.212 177.985 337.793 176.815 337.792 175.485C337.791 174.278 338.099 173.23 338.714 172.343C339.33 171.431 340.179 170.729 341.263 170.235C342.347 169.742 343.566 169.495 344.921 169.494C346.744 169.493 348.37 169.948 349.8 170.859C351.229 171.745 352.24 172.989 352.832 174.59L349.618 176.106C349.223 175.146 348.594 174.382 347.732 173.816C346.894 173.25 345.945 172.967 344.886 172.968C343.974 172.968 343.248 173.191 342.706 173.634C342.164 174.053 341.894 174.608 341.894 175.298C341.894 175.766 342.018 176.16 342.264 176.48C342.511 176.776 342.831 177.022 343.225 177.219C343.62 177.391 344.026 177.538 344.445 177.661L347.697 178.62C349.348 179.088 350.618 179.826 351.505 180.836C352.392 181.82 352.836 183.003 352.837 184.382C352.838 185.565 352.518 186.612 351.878 187.524C351.263 188.411 350.401 189.114 349.293 189.632C348.184 190.125 346.891 190.372 345.413 190.373ZM363.798 189.919L363.783 162.389L372.8 162.384C375.657 162.382 378.134 162.96 380.228 164.117C382.348 165.249 383.987 166.849 385.146 168.918C386.305 170.987 386.885 173.388 386.887 176.123C386.888 178.833 386.311 181.235 385.154 183.33C383.997 185.4 382.36 187.015 380.242 188.174C378.148 189.333 375.672 189.913 372.815 189.915L363.798 189.919ZM368.156 186.037L372.887 186.034C374.833 186.033 376.52 185.626 377.949 184.812C379.402 183.998 380.522 182.852 381.309 181.374C382.097 179.895 382.49 178.146 382.489 176.125C382.488 174.105 382.081 172.369 381.267 170.916C380.478 169.438 379.368 168.293 377.939 167.481C376.51 166.669 374.822 166.263 372.876 166.264L368.146 166.267L368.156 186.037ZM400.169 190.343C398.173 190.344 396.399 189.889 394.847 188.979C393.319 188.043 392.123 186.788 391.26 185.211C390.397 183.61 389.965 181.825 389.964 179.854C389.963 177.834 390.393 176.047 391.254 174.495C392.14 172.942 393.322 171.722 394.8 170.834C396.277 169.922 397.952 169.465 399.825 169.464C401.328 169.463 402.67 169.721 403.853 170.238C405.036 170.755 406.034 171.469 406.848 172.38C407.661 173.266 408.277 174.288 408.697 175.446C409.141 176.604 409.363 177.835 409.364 179.141C409.364 179.461 409.352 179.794 409.328 180.139C409.303 180.484 409.254 180.804 409.18 181.1L393.253 181.108L393.251 177.783L406.814 177.775L404.819 179.291C405.065 178.084 404.978 177.012 404.558 176.076C404.164 175.116 403.547 174.365 402.709 173.823C401.896 173.257 400.935 172.974 399.827 172.975C398.718 172.976 397.733 173.259 396.871 173.826C396.009 174.369 395.344 175.158 394.877 176.193C394.409 177.203 394.225 178.435 394.324 179.888C394.202 181.243 394.387 182.426 394.881 183.436C395.398 184.445 396.113 185.233 397.025 185.799C397.962 186.366 399.021 186.648 400.204 186.648C401.411 186.647 402.433 186.375 403.27 185.833C404.132 185.291 404.809 184.588 405.302 183.726L408.702 185.387C408.309 186.323 407.693 187.173 406.856 187.937C406.043 188.677 405.058 189.269 403.901 189.713C402.768 190.132 401.524 190.342 400.169 190.343ZM418.886 189.889L411.041 169.902L415.586 169.899L421.619 186.193L419.956 186.193L425.97 169.893L430.553 169.891L422.692 189.887L418.886 189.889ZM442.428 190.32C440.432 190.321 438.658 189.866 437.105 188.956C435.578 188.02 434.382 186.765 433.519 185.188C432.656 183.587 432.224 181.802 432.223 179.831C432.221 177.811 432.652 176.024 433.513 174.472C434.399 172.919 435.581 171.699 437.059 170.811C438.536 169.899 440.211 169.442 442.084 169.441C443.586 169.44 444.929 169.698 446.112 170.215C447.295 170.732 448.293 171.446 449.106 172.357C449.92 173.243 450.536 174.265 450.956 175.423C451.4 176.581 451.622 177.812 451.623 179.118C451.623 179.438 451.611 179.771 451.587 180.116C451.562 180.461 451.513 180.781 451.439 181.077L435.512 181.085L435.51 177.759L449.072 177.752L447.078 179.268C447.323 178.061 447.237 176.989 446.817 176.053C446.423 175.093 445.806 174.342 444.968 173.8C444.155 173.234 443.194 172.951 442.086 172.952C440.977 172.952 439.992 173.236 439.13 173.803C438.268 174.346 437.603 175.135 437.135 176.17C436.668 177.18 436.484 178.412 436.583 179.865C436.461 181.22 436.646 182.403 437.139 183.413C437.657 184.422 438.372 185.21 439.284 185.776C440.221 186.343 441.28 186.625 442.463 186.625C443.67 186.624 444.692 186.352 445.529 185.81C446.391 185.267 447.068 184.565 447.561 183.702L450.961 185.364C450.568 186.3 449.952 187.15 449.115 187.914C448.302 188.654 447.317 189.246 446.16 189.69C445.027 190.109 443.783 190.319 442.428 190.32ZM455.704 189.869L455.689 161.895L459.865 161.893L459.88 189.867L455.704 189.869ZM474.407 190.303C472.486 190.304 470.724 189.849 469.122 188.938C467.545 188.027 466.288 186.784 465.351 185.208C464.414 183.632 463.945 181.846 463.944 179.85C463.943 177.83 464.41 176.044 465.345 174.491C466.28 172.914 467.536 171.681 469.112 170.794C470.689 169.881 472.45 169.425 474.396 169.424C476.367 169.422 478.129 169.877 479.681 170.788C481.258 171.674 482.503 172.905 483.416 174.481C484.353 176.033 484.822 177.819 484.823 179.839C484.824 181.859 484.357 183.658 483.421 185.235C482.486 186.812 481.23 188.057 479.654 188.969C478.078 189.857 476.329 190.301 474.407 190.303ZM474.405 186.422C475.588 186.422 476.635 186.138 477.546 185.571C478.457 185.004 479.171 184.227 479.688 183.241C480.229 182.231 480.5 181.098 480.499 179.841C480.498 178.585 480.227 177.464 479.684 176.479C479.166 175.494 478.452 174.718 477.54 174.152C476.628 173.586 475.581 173.303 474.398 173.304C473.24 173.304 472.193 173.588 471.258 174.155C470.346 174.723 469.62 175.499 469.079 176.485C468.562 177.47 468.304 178.591 468.304 179.848C468.305 181.104 468.564 182.237 469.082 183.247C469.625 184.232 470.352 185.008 471.264 185.574C472.2 186.14 473.247 186.423 474.405 186.422ZM488.909 197.242L488.894 169.859L492.885 169.857L492.887 173.996L492.406 173.035C493.145 171.902 494.13 171.014 495.361 170.373C496.593 169.732 497.997 169.411 499.574 169.41C501.471 169.409 503.171 169.864 504.674 170.774C506.202 171.685 507.397 172.928 508.261 174.505C509.148 176.081 509.593 177.854 509.594 179.825C509.595 181.796 509.152 183.57 508.266 185.147C507.405 186.725 506.223 187.982 504.721 188.919C503.219 189.831 501.507 190.288 499.585 190.289C498.033 190.29 496.616 189.97 495.335 189.33C494.078 188.69 493.104 187.767 492.414 186.56L493.079 185.784L493.085 197.24L488.909 197.242ZM499.176 186.409C500.359 186.408 501.406 186.124 502.317 185.557C503.228 184.99 503.942 184.214 504.459 183.228C505 182.218 505.271 181.084 505.27 179.828C505.27 178.571 504.998 177.45 504.455 176.465C503.937 175.48 503.223 174.705 502.311 174.138C501.399 173.572 500.352 173.29 499.169 173.29C498.011 173.291 496.964 173.575 496.029 174.142C495.117 174.709 494.391 175.485 493.85 176.471C493.333 177.457 493.075 178.578 493.075 179.834C493.076 181.091 493.335 182.224 493.853 183.234C494.396 184.219 495.123 184.994 496.035 185.561C496.971 186.127 498.018 186.409 499.176 186.409ZM513.661 189.838L513.65 169.846L517.641 169.843L517.644 174.167L517.126 173.502C517.544 172.147 518.307 171.124 519.416 170.434C520.524 169.743 521.792 169.398 523.221 169.397C524.823 169.396 526.239 169.826 527.472 170.688C528.729 171.525 529.567 172.645 529.986 174.049L528.804 174.161C529.394 172.559 530.293 171.364 531.5 170.575C532.731 169.786 534.135 169.391 535.712 169.39C537.091 169.389 538.336 169.709 539.445 170.349C540.578 170.989 541.478 171.875 542.144 173.008C542.809 174.141 543.143 175.434 543.144 176.888L543.151 189.822L538.975 189.824L538.968 178.036C538.968 177.025 538.783 176.176 538.413 175.486C538.067 174.772 537.574 174.23 536.934 173.861C536.317 173.467 535.591 173.27 534.753 173.271C533.915 173.271 533.176 173.469 532.536 173.863C531.896 174.233 531.391 174.775 531.022 175.49C530.653 176.205 530.468 177.055 530.469 178.04L530.475 189.828L526.337 189.831L526.33 178.042C526.33 177.032 526.144 176.183 525.774 175.493C525.429 174.779 524.936 174.237 524.295 173.868C523.679 173.474 522.94 173.277 522.078 173.278C521.24 173.278 520.501 173.476 519.861 173.87C519.221 174.24 518.716 174.782 518.347 175.497C518.002 176.212 517.83 177.062 517.831 178.047L517.837 189.835L513.661 189.838ZM557.007 190.257C555.011 190.259 553.237 189.804 551.684 188.893C550.156 187.958 548.961 186.702 548.098 185.126C547.235 183.525 546.803 181.739 546.802 179.768C546.8 177.748 547.231 175.962 548.092 174.409C548.978 172.856 550.16 171.636 551.638 170.749C553.115 169.836 554.79 169.38 556.663 169.379C558.165 169.378 559.508 169.636 560.691 170.152C561.874 170.669 562.872 171.383 563.685 172.294C564.499 173.181 565.115 174.203 565.535 175.36C565.979 176.518 566.201 177.75 566.202 179.055C566.202 179.376 566.19 179.708 566.166 180.053C566.141 180.398 566.092 180.718 566.018 181.014L550.091 181.023L550.089 177.697L563.651 177.689L561.657 179.206C561.902 177.998 561.816 176.927 561.396 175.991C561.002 175.03 560.385 174.279 559.547 173.738C558.734 173.171 557.773 172.889 556.664 172.889C555.556 172.89 554.571 173.174 553.709 173.741C552.847 174.283 552.182 175.072 551.714 176.107C551.247 177.117 551.063 178.349 551.162 179.803C551.04 181.158 551.225 182.34 551.718 183.35C552.236 184.36 552.951 185.148 553.863 185.714C554.799 186.28 555.859 186.563 557.041 186.562C558.249 186.561 559.271 186.29 560.108 185.747C560.97 185.205 561.647 184.502 562.14 183.64L565.54 185.301C565.147 186.237 564.531 187.088 563.694 187.852C562.881 188.591 561.896 189.183 560.739 189.627C559.606 190.047 558.362 190.257 557.007 190.257ZM570.283 189.807L570.272 169.815L574.263 169.812L574.265 173.73L573.785 173.212C574.277 171.956 575.065 171.007 576.148 170.366C577.232 169.7 578.488 169.367 579.917 169.366C581.395 169.365 582.701 169.685 583.835 170.325C584.968 170.965 585.856 171.851 586.497 172.984C587.138 174.117 587.459 175.422 587.46 176.9L587.467 189.797L583.328 189.8L583.321 178.011C583.321 177.001 583.136 176.151 582.766 175.462C582.396 174.748 581.866 174.206 581.176 173.837C580.51 173.443 579.747 173.246 578.884 173.247C578.022 173.247 577.246 173.445 576.557 173.839C575.892 174.209 575.375 174.751 575.005 175.466C574.636 176.181 574.452 177.031 574.453 178.016L574.459 189.804L570.283 189.807ZM600.583 190.012C598.489 190.013 596.863 189.423 595.704 188.241C594.546 187.059 593.966 185.396 593.965 183.253L593.959 173.571L590.449 173.573L590.447 169.804L591.001 169.803C591.937 169.803 592.664 169.531 593.181 168.989C593.698 168.447 593.956 167.708 593.956 166.771L593.955 165.219L598.131 165.217L598.133 169.799L602.679 169.797L602.681 173.566L598.135 173.569L598.14 183.066C598.141 183.756 598.252 184.347 598.474 184.84C598.696 185.307 599.053 185.677 599.546 185.948C600.039 186.194 600.68 186.316 601.468 186.316C601.665 186.316 601.887 186.303 602.133 186.279C602.38 186.254 602.614 186.229 602.835 186.204L602.837 189.789C602.492 189.838 602.111 189.888 601.692 189.937C601.273 189.987 600.903 190.012 600.583 190.012ZM626.676 190.219C624.729 190.22 622.919 189.864 621.243 189.151C619.592 188.437 618.138 187.453 616.881 186.197C615.648 184.916 614.687 183.414 613.996 181.69C613.305 179.966 612.959 178.069 612.958 176C612.957 173.955 613.288 172.07 613.953 170.345C614.642 168.596 615.602 167.092 616.833 165.835C618.064 164.553 619.504 163.567 621.155 162.876C622.805 162.161 624.615 161.803 626.586 161.802C628.533 161.801 630.27 162.132 631.797 162.797C633.35 163.461 634.656 164.335 635.716 165.418C636.776 166.477 637.54 167.635 638.009 168.891L634.13 170.778C633.562 169.275 632.626 168.068 631.319 167.158C630.013 166.222 628.436 165.755 626.588 165.756C624.765 165.757 623.152 166.189 621.748 167.052C620.344 167.915 619.249 169.11 618.461 170.638C617.698 172.166 617.318 173.952 617.319 175.997C617.32 178.042 617.715 179.84 618.504 181.392C619.318 182.919 620.427 184.113 621.832 184.975C623.237 185.811 624.85 186.229 626.674 186.228C628.201 186.228 629.593 185.919 630.849 185.302C632.13 184.661 633.151 183.774 633.915 182.64C634.678 181.482 635.059 180.139 635.058 178.611L635.057 176.727L637.016 178.499L626.595 178.505L626.593 174.81L639.379 174.803L639.381 177.389C639.382 179.41 639.038 181.221 638.349 182.822C637.66 184.399 636.725 185.742 635.543 186.852C634.361 187.961 633.006 188.799 631.479 189.367C629.952 189.934 628.351 190.218 626.676 190.219ZM643.433 189.767L643.422 169.775L647.413 169.773L647.416 173.8L647.046 173.209C647.488 171.903 648.202 170.967 649.187 170.4C650.173 169.808 651.355 169.512 652.735 169.511L653.954 169.51L653.956 173.317L652.219 173.317C650.84 173.318 649.719 173.75 648.857 174.613C648.02 175.451 647.602 176.658 647.603 178.235L647.609 189.765L643.433 189.767ZM666.467 190.198C664.545 190.199 662.784 189.744 661.182 188.833C659.605 187.923 658.348 186.679 657.411 185.103C656.474 183.527 656.004 181.741 656.003 179.745C656.002 177.725 656.469 175.939 657.405 174.386C658.34 172.809 659.596 171.577 661.172 170.689C662.748 169.776 664.509 169.32 666.456 169.319C668.427 169.318 670.188 169.772 671.741 170.683C673.318 171.569 674.563 172.8 675.475 174.376C676.412 175.928 676.881 177.714 676.882 179.734C676.883 181.754 676.416 183.553 675.481 185.13C674.546 186.707 673.29 187.952 671.714 188.864C670.138 189.752 668.389 190.197 666.467 190.198ZM666.465 186.317C667.647 186.317 668.694 186.033 669.606 185.466C670.517 184.899 671.231 184.122 671.748 183.137C672.289 182.126 672.559 180.993 672.559 179.736C672.558 178.48 672.286 177.359 671.744 176.374C671.226 175.389 670.511 174.613 669.599 174.047C668.687 173.481 667.64 173.198 666.458 173.199C665.3 173.199 664.253 173.483 663.317 174.05C662.406 174.618 661.68 175.394 661.138 176.38C660.621 177.366 660.363 178.487 660.364 179.743C660.365 180.999 660.624 182.133 661.142 183.142C661.684 184.128 662.412 184.903 663.323 185.469C664.26 186.035 665.307 186.318 666.465 186.317ZM688.097 190.186C686.594 190.187 685.276 189.855 684.142 189.19C683.009 188.501 682.121 187.553 681.48 186.346C680.864 185.115 680.555 183.698 680.554 182.097L680.547 169.754L684.723 169.752L684.73 181.725C684.73 182.637 684.915 183.437 685.285 184.127C685.655 184.817 686.173 185.358 686.838 185.752C687.503 186.121 688.267 186.306 689.13 186.305C690.016 186.305 690.792 186.107 691.457 185.713C692.122 185.318 692.639 184.763 693.008 184.049C693.402 183.334 693.599 182.496 693.598 181.536L693.592 169.747L697.731 169.745L697.742 189.737L693.788 189.739L693.785 185.822L694.229 186.339C693.762 187.571 692.986 188.52 691.903 189.186C690.819 189.852 689.55 190.185 688.097 190.186ZM702.621 197.125L702.606 169.742L706.597 169.74L706.6 173.879L706.119 172.918C706.857 171.785 707.842 170.897 709.074 170.256C710.305 169.615 711.709 169.294 713.286 169.293C715.183 169.292 716.883 169.747 718.386 170.658C719.914 171.568 721.11 172.812 721.973 174.388C722.861 175.964 723.305 177.738 723.306 179.709C723.307 181.68 722.865 183.454 721.979 185.031C721.117 186.608 719.935 187.865 718.433 188.802C716.931 189.714 715.219 190.171 713.297 190.172C711.745 190.173 710.328 189.853 709.047 189.214C707.79 188.574 706.817 187.65 706.126 186.444L706.791 185.667L706.797 197.123L702.621 197.125ZM712.889 186.292C714.071 186.291 715.118 186.008 716.029 185.44C716.941 184.873 717.655 184.097 718.171 183.111C718.713 182.101 718.983 180.967 718.982 179.711C718.982 178.455 718.71 177.334 718.168 176.349C717.65 175.363 716.935 174.588 716.023 174.022C715.111 173.456 714.064 173.173 712.882 173.173C711.724 173.174 710.677 173.458 709.741 174.025C708.83 174.592 708.103 175.369 707.562 176.354C707.045 177.34 706.787 178.461 706.788 179.718C706.788 180.974 707.048 182.107 707.566 183.117C708.108 184.102 708.835 184.878 709.747 185.444C710.684 186.01 711.731 186.293 712.889 186.292Z" fill="#131B28"/>
<path d="M328.028 112.226H393.336L393.078 127.41L310.737 127.41C305.238 127.41 299.963 125.225 296.074 121.336C292.185 117.447 290 112.172 290 106.672L290 52.0659C290 46.5659 292.185 41.2913 296.074 37.4022C299.963 33.5131 305.238 31.3282 310.737 31.3282H393.078V46.3685L327.804 46.1985C325.975 46.194 324.162 46.5504 322.471 47.2473C320.78 47.9443 319.243 48.9681 317.947 50.26C316.652 51.552 315.625 53.0867 314.924 54.7763C314.223 56.466 313.862 58.2773 313.862 60.1066L314.12 98.3174C314.12 102.006 315.585 105.544 318.193 108.152C320.802 110.76 324.339 112.226 328.028 112.226Z" fill="#131B28"/>
<path d="M518.989 114.002H505.376V127.411H539.194C541.917 127.411 544.613 126.875 547.129 125.833C549.645 124.79 551.932 123.263 553.857 121.337C555.783 119.412 557.31 117.126 558.352 114.61C559.395 112.093 559.931 109.397 559.931 106.674V65.2324C559.928 59.7344 557.742 54.4626 553.853 50.576C549.964 46.6894 544.691 44.5061 539.194 44.5061H462.052V56.2362L518.989 56.066C520.819 56.0615 522.631 56.4181 524.322 57.115C526.013 57.812 527.551 58.8357 528.846 60.1277C530.141 61.4196 531.168 62.9543 531.87 64.644C532.571 66.3337 532.931 68.145 532.931 69.9743V100.094C532.931 101.923 532.571 103.734 531.87 105.424C531.168 107.114 530.141 108.649 528.846 109.941C527.551 111.233 526.013 112.256 524.322 112.953C522.631 113.65 520.819 114.007 518.989 114.002Z" fill="#131B28"/>
<path d="M441.021 127.237V55.8748H414.199V127.237H441.021Z" fill="#131B28"/>
<path d="M604.893 127.336V30.7751H577.809V127.35L604.893 127.336Z" fill="#131B28"/>
<path d="M650.582 127.076V30.7751H623.771V127.076H650.582Z" fill="#131B28"/>
<path d="M718.328 126.935L684.908 93.5031L671.692 80.2983L673.053 81.6483L654.131 100.559L680.495 126.935H718.328Z" fill="#131B28"/>
<path d="M647.94 107.274L663.709 91.5055L682.382 72.8325L710.346 44.8684L682.382 45.1634L631.027 96.531L647.94 107.274Z" fill="#131B28"/>
<path d="M497.779 113.998H519.65V127.407H477.62C474.897 127.407 472.2 126.871 469.684 125.829C467.168 124.787 464.882 123.259 462.956 121.334C461.03 119.408 459.503 117.122 458.461 114.606C457.419 112.09 456.882 109.393 456.882 106.67V95.6885C456.882 92.9652 457.419 90.2685 458.461 87.7525C459.503 85.2365 461.03 82.9504 462.956 81.0248C464.882 79.0991 467.168 77.5715 469.684 76.5294C472.2 75.4872 474.897 74.9508 477.62 74.9508H544.07V86.681L497.824 86.5109C495.994 86.5049 494.181 86.8603 492.489 87.5567C490.797 88.2531 489.259 89.2768 487.964 90.5691C486.669 91.8613 485.641 93.3967 484.941 95.087C484.24 96.7774 483.88 98.5894 483.882 100.419V100.09C483.882 103.777 485.345 107.313 487.951 109.921C490.557 112.529 494.092 113.995 497.779 113.998Z" fill="#131B28"/>
<path d="M440.946 47.9376V31.2673H414.199V47.9376H440.946Z" fill="#131B28"/>
</svg>
