<svg width="261" height="125" viewBox="0 0 261 125" fill="none" xmlns="http://www.w3.org/2000/svg">
<path d="M207.24 124.496C207.251 112.487 204.413 100.645 198.957 89.9387C193.502 79.2328 185.584 69.9667 175.851 62.8981L165.898 67.4653L164.249 74.3739L153.366 80.6245L151.605 100.862L155.892 108.534L142.37 121.562L148.089 107.745L142.37 102.257L144.679 88.0059L120.829 96.0133L99.2801 120.463L89.7162 113.194L58.0564 124.496L207.24 124.496Z" fill="#E8BE39"/>
<path d="M219.652 124.166C219.652 100.619 210.299 78.0363 193.652 61.386C177.004 44.7357 154.425 35.3816 130.881 35.3816C107.338 35.3816 84.7586 44.7357 68.1109 61.386C51.4631 78.0363 42.1105 100.619 42.1105 124.166L0.950466 124.166C0.944023 114.162 2.08943 104.192 4.36399 94.4501C12.6535 96.1654 21.272 95.2389 29.0076 91.8009C36.7432 88.3629 43.2069 82.5863 47.4896 75.2834C51.7722 67.9806 53.6585 59.5189 52.8831 51.0881C52.1077 42.6574 48.7098 34.6818 43.167 28.2829C57.2878 15.3398 74.0966 5.68145 92.3887 0C95.0419 8.11943 100.194 15.1921 107.108 20.2071C114.022 25.222 122.344 27.9225 130.885 27.9225C139.425 27.9225 147.748 25.222 154.662 20.2071C161.575 15.1921 166.727 8.11943 169.381 0C187.671 5.68428 204.477 15.3449 218.596 28.2895C213.053 34.6884 209.655 42.664 208.88 51.0947C208.104 59.5254 209.99 67.9872 214.273 75.29C218.556 82.5929 225.019 88.3695 232.755 91.8075C240.491 95.2455 249.109 96.172 257.399 94.4567C259.673 104.198 260.819 114.169 260.812 124.173L219.652 124.166Z" fill="#71767E"/>
<path d="M93.7584 79.7088L111.673 100.047L118.259 92.7905L102.564 75.744L102.367 75.5329L100.279 73.4219C99.9232 73.064 99.652 72.6312 99.4849 72.155C99.3177 71.6788 99.2588 71.1712 99.3124 70.6693C99.3661 70.1673 99.5309 69.6837 99.795 69.2538C100.059 68.8238 100.416 68.4583 100.839 68.1839L103.954 66.1587L104.086 66.0927L104.389 65.9541C104.508 65.8946 104.632 65.8418 104.757 65.7958L103.954 66.1587L104.086 66.0927L104.389 65.9541C104.508 65.8946 104.632 65.8418 104.757 65.7958C112.898 62.167 121.013 60.299 129.924 60.3138C129.924 60.3138 129.707 60.2742 130.412 60.3138C126.798 58.0605 123.071 55.8912 118.939 54.8598C114.159 53.6666 109.169 53.4224 104.257 54.1654C99.2543 54.8952 94.456 56.6514 90.1623 59.3242C89.5893 59.6805 89.0163 60.0499 88.4565 60.4259C85.916 62.1139 83.4791 63.9534 81.159 65.9343C76.5168 69.8948 72.3644 74.3974 68.7901 79.3459C67.8878 80.5796 67.0184 81.8462 66.2017 83.1326L77.9317 88.2386C79.97 85.2354 82.264 82.4146 84.788 79.8077C84.9408 79.6272 85.1058 79.4575 85.282 79.2998L86.7177 77.9804C87.4741 77.2753 88.476 76.895 89.5088 76.9209C90.5417 76.9468 91.5234 77.3768 92.2436 78.1189L93.7387 79.6494" fill="#E8BE39"/>
</svg>
